G75*
%MOIN*%
%OFA0B0*%
%FSLAX25Y25*%
%IPPOS*%
%LPD*%
%AMOC8*
5,1,8,0,0,1.08239X$1,22.5*
%
%ADD10C,0.06000*%
%ADD11C,0.07050*%
%ADD12C,0.02400*%
D10*
X0018300Y0046300D02*
X0024300Y0046300D01*
X0024300Y0056300D02*
X0018300Y0056300D01*
X0018300Y0066300D02*
X0024300Y0066300D01*
X0024300Y0076300D02*
X0018300Y0076300D01*
X0018300Y0086300D02*
X0024300Y0086300D01*
X0024300Y0096300D02*
X0018300Y0096300D01*
X0041300Y0113300D02*
X0041300Y0119300D01*
X0041295Y0133361D02*
X0041305Y0139361D01*
X0051305Y0139344D02*
X0051295Y0133344D01*
X0051300Y0119300D02*
X0051300Y0113300D01*
X0061300Y0113300D02*
X0061300Y0119300D01*
X0061295Y0133326D02*
X0061305Y0139326D01*
X0071305Y0139309D02*
X0071295Y0133309D01*
X0071300Y0119300D02*
X0071300Y0113300D01*
X0081300Y0113300D02*
X0081300Y0119300D01*
X0081295Y0133291D02*
X0081305Y0139291D01*
X0091305Y0139274D02*
X0091295Y0133274D01*
X0091300Y0119300D02*
X0091300Y0113300D01*
X0101300Y0113300D02*
X0101300Y0119300D01*
X0101295Y0133256D02*
X0101305Y0139256D01*
X0111305Y0139239D02*
X0111295Y0133239D01*
X0111300Y0119300D02*
X0111300Y0113300D01*
X0128300Y0096300D02*
X0134300Y0096300D01*
X0134300Y0086300D02*
X0128300Y0086300D01*
X0128300Y0076300D02*
X0134300Y0076300D01*
X0134300Y0066300D02*
X0128300Y0066300D01*
X0128300Y0056300D02*
X0134300Y0056300D01*
X0134300Y0046300D02*
X0128300Y0046300D01*
X0128300Y0156300D02*
X0134300Y0156300D01*
X0134300Y0166300D02*
X0128300Y0166300D01*
X0128300Y0176300D02*
X0134300Y0176300D01*
X0134300Y0186300D02*
X0128300Y0186300D01*
X0128300Y0196300D02*
X0134300Y0196300D01*
X0134300Y0206300D02*
X0128300Y0206300D01*
X0024300Y0206300D02*
X0018300Y0206300D01*
X0018300Y0196300D02*
X0024300Y0196300D01*
X0024300Y0186300D02*
X0018300Y0186300D01*
X0018300Y0176300D02*
X0024300Y0176300D01*
X0024300Y0166300D02*
X0018300Y0166300D01*
X0018300Y0156300D02*
X0024300Y0156300D01*
D11*
X0066457Y0212775D02*
X0066457Y0219825D01*
X0086143Y0219825D02*
X0086143Y0212775D01*
X0086143Y0034825D02*
X0086143Y0027775D01*
X0066457Y0027775D02*
X0066457Y0034825D01*
D12*
X0021900Y0044500D02*
X0021300Y0046300D01*
X0021900Y0044500D02*
X0039500Y0044500D01*
X0063700Y0020300D01*
X0074700Y0020300D01*
X0085700Y0031300D01*
X0086143Y0031300D01*
X0087900Y0031300D01*
X0101100Y0044500D01*
X0129700Y0044500D01*
X0131300Y0046300D01*
X0129700Y0055500D02*
X0131300Y0056300D01*
X0129700Y0055500D02*
X0092300Y0055500D01*
X0068100Y0031300D01*
X0066457Y0031300D01*
X0065900Y0031300D01*
X0041700Y0055500D01*
X0021900Y0055500D01*
X0021300Y0056300D01*
X0021300Y0066300D02*
X0021900Y0066500D01*
X0024100Y0066500D01*
X0072500Y0114900D01*
X0071300Y0116300D01*
X0061300Y0116300D02*
X0059300Y0114900D01*
X0059300Y0110500D01*
X0026300Y0077500D01*
X0021900Y0077500D01*
X0021300Y0076300D01*
X0021300Y0086300D02*
X0024100Y0086300D01*
X0052700Y0114900D01*
X0051300Y0116300D01*
X0041300Y0116300D02*
X0039500Y0114900D01*
X0021900Y0097300D01*
X0021300Y0096300D01*
X0039500Y0136900D02*
X0041300Y0136361D01*
X0039500Y0136900D02*
X0021900Y0154500D01*
X0021300Y0156300D01*
X0021900Y0165500D02*
X0021300Y0166300D01*
X0021900Y0165500D02*
X0024100Y0165500D01*
X0052700Y0136900D01*
X0051300Y0136344D01*
X0059300Y0136900D02*
X0061300Y0136326D01*
X0059300Y0136900D02*
X0059300Y0141300D01*
X0026300Y0174300D01*
X0021900Y0174300D01*
X0021300Y0176300D01*
X0021900Y0185300D02*
X0021300Y0186300D01*
X0021900Y0185300D02*
X0026300Y0185300D01*
X0070300Y0141300D01*
X0070300Y0136900D01*
X0071300Y0136309D01*
X0081300Y0136291D02*
X0081300Y0136900D01*
X0081300Y0139100D01*
X0129700Y0187500D01*
X0131300Y0186300D01*
X0129700Y0176500D02*
X0131300Y0176300D01*
X0129700Y0176500D02*
X0092300Y0139100D01*
X0092300Y0136900D01*
X0091300Y0136274D01*
X0101300Y0136256D02*
X0103300Y0136900D01*
X0103300Y0141300D01*
X0129700Y0167700D01*
X0131300Y0166300D01*
X0131300Y0156300D02*
X0129700Y0154500D01*
X0112100Y0136900D01*
X0111300Y0136239D01*
X0111300Y0116300D02*
X0112100Y0114900D01*
X0129700Y0097300D01*
X0131300Y0096300D01*
X0131300Y0086300D02*
X0127500Y0086300D01*
X0103300Y0110500D01*
X0103300Y0114900D01*
X0101300Y0116300D01*
X0091300Y0116300D02*
X0090100Y0114900D01*
X0127500Y0077500D01*
X0129700Y0077500D01*
X0131300Y0076300D01*
X0129700Y0066500D02*
X0127500Y0066500D01*
X0081300Y0112700D01*
X0081300Y0116300D01*
X0129700Y0066500D02*
X0131300Y0066300D01*
X0131300Y0196300D02*
X0087900Y0196300D01*
X0068100Y0216100D01*
X0066457Y0216300D01*
X0065900Y0216100D01*
X0046100Y0196300D01*
X0021300Y0196300D01*
X0021300Y0206300D02*
X0021900Y0207300D01*
X0043900Y0207300D01*
X0063700Y0227100D01*
X0076900Y0227100D01*
X0085700Y0218300D01*
X0086143Y0216300D01*
X0087900Y0216100D01*
X0096700Y0207300D01*
X0129700Y0207300D01*
X0131300Y0206300D01*
M02*
