G75*
%MOIN*%
%OFA0B0*%
%FSLAX25Y25*%
%IPPOS*%
%LPD*%
%AMOC8*
5,1,8,0,0,1.08239X$1,22.5*
%
%ADD10C,0.00600*%
%ADD11C,0.00500*%
D10*
X0001300Y0001300D02*
X0001300Y0246300D01*
X0151300Y0246300D01*
X0151300Y0001300D01*
X0001300Y0001300D01*
X0018800Y0041300D02*
X0016300Y0043800D01*
X0016300Y0048800D01*
X0018800Y0051300D01*
X0016300Y0053800D01*
X0016300Y0058800D01*
X0018800Y0061300D01*
X0023800Y0061300D01*
X0026300Y0058800D01*
X0026300Y0053800D01*
X0023800Y0051300D01*
X0026300Y0048800D01*
X0026300Y0043800D01*
X0023800Y0041300D01*
X0018800Y0041300D01*
X0018800Y0051300D02*
X0023800Y0051300D01*
X0023800Y0061300D02*
X0026300Y0063800D01*
X0026300Y0068800D01*
X0023800Y0071300D01*
X0026300Y0073800D01*
X0026300Y0078800D01*
X0023800Y0081300D01*
X0026300Y0083800D01*
X0026300Y0088800D01*
X0023800Y0091300D01*
X0026300Y0093800D01*
X0026300Y0098800D01*
X0023800Y0101300D01*
X0018800Y0101300D01*
X0016300Y0098800D01*
X0016300Y0093800D01*
X0018800Y0091300D01*
X0023800Y0091300D01*
X0018800Y0091300D02*
X0016300Y0088800D01*
X0016300Y0083800D01*
X0018800Y0081300D01*
X0023800Y0081300D01*
X0018800Y0081300D02*
X0016300Y0078800D01*
X0016300Y0073800D01*
X0018800Y0071300D01*
X0023800Y0071300D01*
X0018800Y0071300D02*
X0016300Y0068800D01*
X0016300Y0063800D01*
X0018800Y0061300D01*
X0038800Y0111300D02*
X0043800Y0111300D01*
X0046300Y0113800D01*
X0048800Y0111300D01*
X0053800Y0111300D01*
X0056300Y0113800D01*
X0056300Y0118800D01*
X0053800Y0121300D01*
X0048800Y0121300D01*
X0046300Y0118800D01*
X0046300Y0113800D01*
X0046300Y0118800D02*
X0043800Y0121300D01*
X0038800Y0121300D01*
X0036300Y0118800D01*
X0036300Y0113800D01*
X0038800Y0111300D01*
X0038791Y0131365D02*
X0036296Y0133870D01*
X0036304Y0138870D01*
X0038809Y0141365D01*
X0043809Y0141357D01*
X0046304Y0138852D01*
X0048809Y0141348D01*
X0053809Y0141339D01*
X0056304Y0138835D01*
X0058809Y0141331D01*
X0063809Y0141322D01*
X0066304Y0138817D01*
X0068809Y0141313D01*
X0073809Y0141304D01*
X0076304Y0138800D01*
X0078809Y0141296D01*
X0083809Y0141287D01*
X0086304Y0138783D01*
X0088809Y0141278D01*
X0093809Y0141269D01*
X0096304Y0138765D01*
X0098809Y0141261D01*
X0103809Y0141252D01*
X0106304Y0138748D01*
X0108809Y0141243D01*
X0113809Y0141235D01*
X0116304Y0138730D01*
X0116296Y0133730D01*
X0113791Y0131235D01*
X0108791Y0131243D01*
X0106296Y0133748D01*
X0103791Y0131252D01*
X0098791Y0131261D01*
X0096296Y0133765D01*
X0096304Y0138765D01*
X0096296Y0133765D02*
X0093791Y0131269D01*
X0088791Y0131278D01*
X0086296Y0133783D01*
X0083791Y0131287D01*
X0078791Y0131296D01*
X0076296Y0133800D01*
X0073791Y0131304D01*
X0068791Y0131313D01*
X0066296Y0133817D01*
X0066304Y0138817D01*
X0066296Y0133817D02*
X0063791Y0131322D01*
X0058791Y0131331D01*
X0056296Y0133835D01*
X0053791Y0131339D01*
X0048791Y0131348D01*
X0046296Y0133852D01*
X0043791Y0131357D01*
X0038791Y0131365D01*
X0046296Y0133852D02*
X0046304Y0138852D01*
X0056304Y0138835D02*
X0056296Y0133835D01*
X0058800Y0121300D02*
X0063800Y0121300D01*
X0066300Y0118800D01*
X0068800Y0121300D01*
X0073800Y0121300D01*
X0076300Y0118800D01*
X0078800Y0121300D01*
X0083800Y0121300D01*
X0086300Y0118800D01*
X0086300Y0113800D01*
X0083800Y0111300D01*
X0078800Y0111300D01*
X0076300Y0113800D01*
X0073800Y0111300D01*
X0068800Y0111300D01*
X0066300Y0113800D01*
X0063800Y0111300D01*
X0058800Y0111300D01*
X0056300Y0113800D01*
X0056300Y0118800D02*
X0058800Y0121300D01*
X0066300Y0118800D02*
X0066300Y0113800D01*
X0076300Y0113800D02*
X0076300Y0118800D01*
X0086300Y0118800D02*
X0088800Y0121300D01*
X0093800Y0121300D01*
X0096300Y0118800D01*
X0098800Y0121300D01*
X0103800Y0121300D01*
X0106300Y0118800D01*
X0108800Y0121300D01*
X0113800Y0121300D01*
X0116300Y0118800D01*
X0116300Y0113800D01*
X0113800Y0111300D01*
X0108800Y0111300D01*
X0106300Y0113800D01*
X0103800Y0111300D01*
X0098800Y0111300D01*
X0096300Y0113800D01*
X0093800Y0111300D01*
X0088800Y0111300D01*
X0086300Y0113800D01*
X0096300Y0113800D02*
X0096300Y0118800D01*
X0106300Y0118800D02*
X0106300Y0113800D01*
X0106296Y0133748D02*
X0106304Y0138748D01*
X0086304Y0138783D02*
X0086296Y0133783D01*
X0076296Y0133800D02*
X0076304Y0138800D01*
X0056658Y0199800D02*
X0056658Y0209202D01*
X0056658Y0235202D01*
X0056658Y0236001D01*
X0095957Y0236001D01*
X0095957Y0235202D01*
X0095957Y0209202D01*
X0095957Y0199800D01*
X0056658Y0199800D01*
X0056658Y0209202D02*
X0062957Y0209202D01*
X0069957Y0209202D02*
X0082658Y0209202D01*
X0089658Y0209202D02*
X0095957Y0209202D01*
X0084157Y0230000D02*
X0084159Y0230089D01*
X0084165Y0230178D01*
X0084175Y0230267D01*
X0084189Y0230355D01*
X0084206Y0230442D01*
X0084228Y0230528D01*
X0084254Y0230614D01*
X0084283Y0230698D01*
X0084316Y0230781D01*
X0084352Y0230862D01*
X0084393Y0230942D01*
X0084436Y0231019D01*
X0084483Y0231095D01*
X0084534Y0231168D01*
X0084587Y0231239D01*
X0084644Y0231308D01*
X0084704Y0231374D01*
X0084767Y0231438D01*
X0084832Y0231498D01*
X0084900Y0231556D01*
X0084971Y0231610D01*
X0085044Y0231661D01*
X0085119Y0231709D01*
X0085196Y0231754D01*
X0085275Y0231795D01*
X0085356Y0231832D01*
X0085438Y0231866D01*
X0085522Y0231897D01*
X0085607Y0231923D01*
X0085693Y0231946D01*
X0085780Y0231964D01*
X0085868Y0231979D01*
X0085957Y0231990D01*
X0086046Y0231997D01*
X0086135Y0232000D01*
X0086224Y0231999D01*
X0086313Y0231994D01*
X0086401Y0231985D01*
X0086490Y0231972D01*
X0086577Y0231955D01*
X0086664Y0231935D01*
X0086750Y0231910D01*
X0086834Y0231882D01*
X0086917Y0231850D01*
X0086999Y0231814D01*
X0087079Y0231775D01*
X0087157Y0231732D01*
X0087233Y0231686D01*
X0087307Y0231636D01*
X0087379Y0231583D01*
X0087448Y0231527D01*
X0087515Y0231468D01*
X0087579Y0231406D01*
X0087640Y0231342D01*
X0087699Y0231274D01*
X0087754Y0231204D01*
X0087806Y0231132D01*
X0087855Y0231057D01*
X0087900Y0230981D01*
X0087942Y0230902D01*
X0087980Y0230822D01*
X0088015Y0230740D01*
X0088046Y0230656D01*
X0088074Y0230571D01*
X0088097Y0230485D01*
X0088117Y0230398D01*
X0088133Y0230311D01*
X0088145Y0230222D01*
X0088153Y0230134D01*
X0088157Y0230045D01*
X0088157Y0229955D01*
X0088153Y0229866D01*
X0088145Y0229778D01*
X0088133Y0229689D01*
X0088117Y0229602D01*
X0088097Y0229515D01*
X0088074Y0229429D01*
X0088046Y0229344D01*
X0088015Y0229260D01*
X0087980Y0229178D01*
X0087942Y0229098D01*
X0087900Y0229019D01*
X0087855Y0228943D01*
X0087806Y0228868D01*
X0087754Y0228796D01*
X0087699Y0228726D01*
X0087640Y0228658D01*
X0087579Y0228594D01*
X0087515Y0228532D01*
X0087448Y0228473D01*
X0087379Y0228417D01*
X0087307Y0228364D01*
X0087233Y0228314D01*
X0087157Y0228268D01*
X0087079Y0228225D01*
X0086999Y0228186D01*
X0086917Y0228150D01*
X0086834Y0228118D01*
X0086750Y0228090D01*
X0086664Y0228065D01*
X0086577Y0228045D01*
X0086490Y0228028D01*
X0086401Y0228015D01*
X0086313Y0228006D01*
X0086224Y0228001D01*
X0086135Y0228000D01*
X0086046Y0228003D01*
X0085957Y0228010D01*
X0085868Y0228021D01*
X0085780Y0228036D01*
X0085693Y0228054D01*
X0085607Y0228077D01*
X0085522Y0228103D01*
X0085438Y0228134D01*
X0085356Y0228168D01*
X0085275Y0228205D01*
X0085196Y0228246D01*
X0085119Y0228291D01*
X0085044Y0228339D01*
X0084971Y0228390D01*
X0084900Y0228444D01*
X0084832Y0228502D01*
X0084767Y0228562D01*
X0084704Y0228626D01*
X0084644Y0228692D01*
X0084587Y0228761D01*
X0084534Y0228832D01*
X0084483Y0228905D01*
X0084436Y0228981D01*
X0084393Y0229058D01*
X0084352Y0229138D01*
X0084316Y0229219D01*
X0084283Y0229302D01*
X0084254Y0229386D01*
X0084228Y0229472D01*
X0084206Y0229558D01*
X0084189Y0229645D01*
X0084175Y0229733D01*
X0084165Y0229822D01*
X0084159Y0229911D01*
X0084157Y0230000D01*
X0095957Y0235202D02*
X0056658Y0235202D01*
X0064457Y0230000D02*
X0064459Y0230089D01*
X0064465Y0230178D01*
X0064475Y0230267D01*
X0064489Y0230355D01*
X0064506Y0230442D01*
X0064528Y0230528D01*
X0064554Y0230614D01*
X0064583Y0230698D01*
X0064616Y0230781D01*
X0064652Y0230862D01*
X0064693Y0230942D01*
X0064736Y0231019D01*
X0064783Y0231095D01*
X0064834Y0231168D01*
X0064887Y0231239D01*
X0064944Y0231308D01*
X0065004Y0231374D01*
X0065067Y0231438D01*
X0065132Y0231498D01*
X0065200Y0231556D01*
X0065271Y0231610D01*
X0065344Y0231661D01*
X0065419Y0231709D01*
X0065496Y0231754D01*
X0065575Y0231795D01*
X0065656Y0231832D01*
X0065738Y0231866D01*
X0065822Y0231897D01*
X0065907Y0231923D01*
X0065993Y0231946D01*
X0066080Y0231964D01*
X0066168Y0231979D01*
X0066257Y0231990D01*
X0066346Y0231997D01*
X0066435Y0232000D01*
X0066524Y0231999D01*
X0066613Y0231994D01*
X0066701Y0231985D01*
X0066790Y0231972D01*
X0066877Y0231955D01*
X0066964Y0231935D01*
X0067050Y0231910D01*
X0067134Y0231882D01*
X0067217Y0231850D01*
X0067299Y0231814D01*
X0067379Y0231775D01*
X0067457Y0231732D01*
X0067533Y0231686D01*
X0067607Y0231636D01*
X0067679Y0231583D01*
X0067748Y0231527D01*
X0067815Y0231468D01*
X0067879Y0231406D01*
X0067940Y0231342D01*
X0067999Y0231274D01*
X0068054Y0231204D01*
X0068106Y0231132D01*
X0068155Y0231057D01*
X0068200Y0230981D01*
X0068242Y0230902D01*
X0068280Y0230822D01*
X0068315Y0230740D01*
X0068346Y0230656D01*
X0068374Y0230571D01*
X0068397Y0230485D01*
X0068417Y0230398D01*
X0068433Y0230311D01*
X0068445Y0230222D01*
X0068453Y0230134D01*
X0068457Y0230045D01*
X0068457Y0229955D01*
X0068453Y0229866D01*
X0068445Y0229778D01*
X0068433Y0229689D01*
X0068417Y0229602D01*
X0068397Y0229515D01*
X0068374Y0229429D01*
X0068346Y0229344D01*
X0068315Y0229260D01*
X0068280Y0229178D01*
X0068242Y0229098D01*
X0068200Y0229019D01*
X0068155Y0228943D01*
X0068106Y0228868D01*
X0068054Y0228796D01*
X0067999Y0228726D01*
X0067940Y0228658D01*
X0067879Y0228594D01*
X0067815Y0228532D01*
X0067748Y0228473D01*
X0067679Y0228417D01*
X0067607Y0228364D01*
X0067533Y0228314D01*
X0067457Y0228268D01*
X0067379Y0228225D01*
X0067299Y0228186D01*
X0067217Y0228150D01*
X0067134Y0228118D01*
X0067050Y0228090D01*
X0066964Y0228065D01*
X0066877Y0228045D01*
X0066790Y0228028D01*
X0066701Y0228015D01*
X0066613Y0228006D01*
X0066524Y0228001D01*
X0066435Y0228000D01*
X0066346Y0228003D01*
X0066257Y0228010D01*
X0066168Y0228021D01*
X0066080Y0228036D01*
X0065993Y0228054D01*
X0065907Y0228077D01*
X0065822Y0228103D01*
X0065738Y0228134D01*
X0065656Y0228168D01*
X0065575Y0228205D01*
X0065496Y0228246D01*
X0065419Y0228291D01*
X0065344Y0228339D01*
X0065271Y0228390D01*
X0065200Y0228444D01*
X0065132Y0228502D01*
X0065067Y0228562D01*
X0065004Y0228626D01*
X0064944Y0228692D01*
X0064887Y0228761D01*
X0064834Y0228832D01*
X0064783Y0228905D01*
X0064736Y0228981D01*
X0064693Y0229058D01*
X0064652Y0229138D01*
X0064616Y0229219D01*
X0064583Y0229302D01*
X0064554Y0229386D01*
X0064528Y0229472D01*
X0064506Y0229558D01*
X0064489Y0229645D01*
X0064475Y0229733D01*
X0064465Y0229822D01*
X0064459Y0229911D01*
X0064457Y0230000D01*
X0026300Y0208800D02*
X0026300Y0203800D01*
X0023800Y0201300D01*
X0026300Y0198800D01*
X0026300Y0193800D01*
X0023800Y0191300D01*
X0018800Y0191300D01*
X0016300Y0193800D01*
X0016300Y0198800D01*
X0018800Y0201300D01*
X0016300Y0203800D01*
X0016300Y0208800D01*
X0018800Y0211300D01*
X0023800Y0211300D01*
X0026300Y0208800D01*
X0023800Y0201300D02*
X0018800Y0201300D01*
X0018800Y0191300D02*
X0016300Y0188800D01*
X0016300Y0183800D01*
X0018800Y0181300D01*
X0016300Y0178800D01*
X0016300Y0173800D01*
X0018800Y0171300D01*
X0016300Y0168800D01*
X0016300Y0163800D01*
X0018800Y0161300D01*
X0016300Y0158800D01*
X0016300Y0153800D01*
X0018800Y0151300D01*
X0023800Y0151300D01*
X0026300Y0153800D01*
X0026300Y0158800D01*
X0023800Y0161300D01*
X0018800Y0161300D01*
X0023800Y0161300D02*
X0026300Y0163800D01*
X0026300Y0168800D01*
X0023800Y0171300D01*
X0018800Y0171300D01*
X0023800Y0171300D02*
X0026300Y0173800D01*
X0026300Y0178800D01*
X0023800Y0181300D01*
X0018800Y0181300D01*
X0023800Y0181300D02*
X0026300Y0183800D01*
X0026300Y0188800D01*
X0023800Y0191300D01*
X0056658Y0051001D02*
X0056658Y0050202D01*
X0095957Y0050202D01*
X0095957Y0024202D01*
X0095957Y0014800D01*
X0056658Y0014800D01*
X0056658Y0024202D01*
X0056658Y0050202D01*
X0056658Y0051001D02*
X0095957Y0051001D01*
X0095957Y0050202D01*
X0084157Y0045000D02*
X0084159Y0045089D01*
X0084165Y0045178D01*
X0084175Y0045267D01*
X0084189Y0045355D01*
X0084206Y0045442D01*
X0084228Y0045528D01*
X0084254Y0045614D01*
X0084283Y0045698D01*
X0084316Y0045781D01*
X0084352Y0045862D01*
X0084393Y0045942D01*
X0084436Y0046019D01*
X0084483Y0046095D01*
X0084534Y0046168D01*
X0084587Y0046239D01*
X0084644Y0046308D01*
X0084704Y0046374D01*
X0084767Y0046438D01*
X0084832Y0046498D01*
X0084900Y0046556D01*
X0084971Y0046610D01*
X0085044Y0046661D01*
X0085119Y0046709D01*
X0085196Y0046754D01*
X0085275Y0046795D01*
X0085356Y0046832D01*
X0085438Y0046866D01*
X0085522Y0046897D01*
X0085607Y0046923D01*
X0085693Y0046946D01*
X0085780Y0046964D01*
X0085868Y0046979D01*
X0085957Y0046990D01*
X0086046Y0046997D01*
X0086135Y0047000D01*
X0086224Y0046999D01*
X0086313Y0046994D01*
X0086401Y0046985D01*
X0086490Y0046972D01*
X0086577Y0046955D01*
X0086664Y0046935D01*
X0086750Y0046910D01*
X0086834Y0046882D01*
X0086917Y0046850D01*
X0086999Y0046814D01*
X0087079Y0046775D01*
X0087157Y0046732D01*
X0087233Y0046686D01*
X0087307Y0046636D01*
X0087379Y0046583D01*
X0087448Y0046527D01*
X0087515Y0046468D01*
X0087579Y0046406D01*
X0087640Y0046342D01*
X0087699Y0046274D01*
X0087754Y0046204D01*
X0087806Y0046132D01*
X0087855Y0046057D01*
X0087900Y0045981D01*
X0087942Y0045902D01*
X0087980Y0045822D01*
X0088015Y0045740D01*
X0088046Y0045656D01*
X0088074Y0045571D01*
X0088097Y0045485D01*
X0088117Y0045398D01*
X0088133Y0045311D01*
X0088145Y0045222D01*
X0088153Y0045134D01*
X0088157Y0045045D01*
X0088157Y0044955D01*
X0088153Y0044866D01*
X0088145Y0044778D01*
X0088133Y0044689D01*
X0088117Y0044602D01*
X0088097Y0044515D01*
X0088074Y0044429D01*
X0088046Y0044344D01*
X0088015Y0044260D01*
X0087980Y0044178D01*
X0087942Y0044098D01*
X0087900Y0044019D01*
X0087855Y0043943D01*
X0087806Y0043868D01*
X0087754Y0043796D01*
X0087699Y0043726D01*
X0087640Y0043658D01*
X0087579Y0043594D01*
X0087515Y0043532D01*
X0087448Y0043473D01*
X0087379Y0043417D01*
X0087307Y0043364D01*
X0087233Y0043314D01*
X0087157Y0043268D01*
X0087079Y0043225D01*
X0086999Y0043186D01*
X0086917Y0043150D01*
X0086834Y0043118D01*
X0086750Y0043090D01*
X0086664Y0043065D01*
X0086577Y0043045D01*
X0086490Y0043028D01*
X0086401Y0043015D01*
X0086313Y0043006D01*
X0086224Y0043001D01*
X0086135Y0043000D01*
X0086046Y0043003D01*
X0085957Y0043010D01*
X0085868Y0043021D01*
X0085780Y0043036D01*
X0085693Y0043054D01*
X0085607Y0043077D01*
X0085522Y0043103D01*
X0085438Y0043134D01*
X0085356Y0043168D01*
X0085275Y0043205D01*
X0085196Y0043246D01*
X0085119Y0043291D01*
X0085044Y0043339D01*
X0084971Y0043390D01*
X0084900Y0043444D01*
X0084832Y0043502D01*
X0084767Y0043562D01*
X0084704Y0043626D01*
X0084644Y0043692D01*
X0084587Y0043761D01*
X0084534Y0043832D01*
X0084483Y0043905D01*
X0084436Y0043981D01*
X0084393Y0044058D01*
X0084352Y0044138D01*
X0084316Y0044219D01*
X0084283Y0044302D01*
X0084254Y0044386D01*
X0084228Y0044472D01*
X0084206Y0044558D01*
X0084189Y0044645D01*
X0084175Y0044733D01*
X0084165Y0044822D01*
X0084159Y0044911D01*
X0084157Y0045000D01*
X0082658Y0024202D02*
X0069957Y0024202D01*
X0062957Y0024202D02*
X0056658Y0024202D01*
X0064457Y0045000D02*
X0064459Y0045089D01*
X0064465Y0045178D01*
X0064475Y0045267D01*
X0064489Y0045355D01*
X0064506Y0045442D01*
X0064528Y0045528D01*
X0064554Y0045614D01*
X0064583Y0045698D01*
X0064616Y0045781D01*
X0064652Y0045862D01*
X0064693Y0045942D01*
X0064736Y0046019D01*
X0064783Y0046095D01*
X0064834Y0046168D01*
X0064887Y0046239D01*
X0064944Y0046308D01*
X0065004Y0046374D01*
X0065067Y0046438D01*
X0065132Y0046498D01*
X0065200Y0046556D01*
X0065271Y0046610D01*
X0065344Y0046661D01*
X0065419Y0046709D01*
X0065496Y0046754D01*
X0065575Y0046795D01*
X0065656Y0046832D01*
X0065738Y0046866D01*
X0065822Y0046897D01*
X0065907Y0046923D01*
X0065993Y0046946D01*
X0066080Y0046964D01*
X0066168Y0046979D01*
X0066257Y0046990D01*
X0066346Y0046997D01*
X0066435Y0047000D01*
X0066524Y0046999D01*
X0066613Y0046994D01*
X0066701Y0046985D01*
X0066790Y0046972D01*
X0066877Y0046955D01*
X0066964Y0046935D01*
X0067050Y0046910D01*
X0067134Y0046882D01*
X0067217Y0046850D01*
X0067299Y0046814D01*
X0067379Y0046775D01*
X0067457Y0046732D01*
X0067533Y0046686D01*
X0067607Y0046636D01*
X0067679Y0046583D01*
X0067748Y0046527D01*
X0067815Y0046468D01*
X0067879Y0046406D01*
X0067940Y0046342D01*
X0067999Y0046274D01*
X0068054Y0046204D01*
X0068106Y0046132D01*
X0068155Y0046057D01*
X0068200Y0045981D01*
X0068242Y0045902D01*
X0068280Y0045822D01*
X0068315Y0045740D01*
X0068346Y0045656D01*
X0068374Y0045571D01*
X0068397Y0045485D01*
X0068417Y0045398D01*
X0068433Y0045311D01*
X0068445Y0045222D01*
X0068453Y0045134D01*
X0068457Y0045045D01*
X0068457Y0044955D01*
X0068453Y0044866D01*
X0068445Y0044778D01*
X0068433Y0044689D01*
X0068417Y0044602D01*
X0068397Y0044515D01*
X0068374Y0044429D01*
X0068346Y0044344D01*
X0068315Y0044260D01*
X0068280Y0044178D01*
X0068242Y0044098D01*
X0068200Y0044019D01*
X0068155Y0043943D01*
X0068106Y0043868D01*
X0068054Y0043796D01*
X0067999Y0043726D01*
X0067940Y0043658D01*
X0067879Y0043594D01*
X0067815Y0043532D01*
X0067748Y0043473D01*
X0067679Y0043417D01*
X0067607Y0043364D01*
X0067533Y0043314D01*
X0067457Y0043268D01*
X0067379Y0043225D01*
X0067299Y0043186D01*
X0067217Y0043150D01*
X0067134Y0043118D01*
X0067050Y0043090D01*
X0066964Y0043065D01*
X0066877Y0043045D01*
X0066790Y0043028D01*
X0066701Y0043015D01*
X0066613Y0043006D01*
X0066524Y0043001D01*
X0066435Y0043000D01*
X0066346Y0043003D01*
X0066257Y0043010D01*
X0066168Y0043021D01*
X0066080Y0043036D01*
X0065993Y0043054D01*
X0065907Y0043077D01*
X0065822Y0043103D01*
X0065738Y0043134D01*
X0065656Y0043168D01*
X0065575Y0043205D01*
X0065496Y0043246D01*
X0065419Y0043291D01*
X0065344Y0043339D01*
X0065271Y0043390D01*
X0065200Y0043444D01*
X0065132Y0043502D01*
X0065067Y0043562D01*
X0065004Y0043626D01*
X0064944Y0043692D01*
X0064887Y0043761D01*
X0064834Y0043832D01*
X0064783Y0043905D01*
X0064736Y0043981D01*
X0064693Y0044058D01*
X0064652Y0044138D01*
X0064616Y0044219D01*
X0064583Y0044302D01*
X0064554Y0044386D01*
X0064528Y0044472D01*
X0064506Y0044558D01*
X0064489Y0044645D01*
X0064475Y0044733D01*
X0064465Y0044822D01*
X0064459Y0044911D01*
X0064457Y0045000D01*
X0089658Y0024202D02*
X0095957Y0024202D01*
X0126300Y0043800D02*
X0128800Y0041300D01*
X0133800Y0041300D01*
X0136300Y0043800D01*
X0136300Y0048800D01*
X0133800Y0051300D01*
X0136300Y0053800D01*
X0136300Y0058800D01*
X0133800Y0061300D01*
X0128800Y0061300D01*
X0126300Y0058800D01*
X0126300Y0053800D01*
X0128800Y0051300D01*
X0133800Y0051300D01*
X0128800Y0051300D02*
X0126300Y0048800D01*
X0126300Y0043800D01*
X0128800Y0061300D02*
X0126300Y0063800D01*
X0126300Y0068800D01*
X0128800Y0071300D01*
X0126300Y0073800D01*
X0126300Y0078800D01*
X0128800Y0081300D01*
X0126300Y0083800D01*
X0126300Y0088800D01*
X0128800Y0091300D01*
X0126300Y0093800D01*
X0126300Y0098800D01*
X0128800Y0101300D01*
X0133800Y0101300D01*
X0136300Y0098800D01*
X0136300Y0093800D01*
X0133800Y0091300D01*
X0136300Y0088800D01*
X0136300Y0083800D01*
X0133800Y0081300D01*
X0136300Y0078800D01*
X0136300Y0073800D01*
X0133800Y0071300D01*
X0136300Y0068800D01*
X0136300Y0063800D01*
X0133800Y0061300D01*
X0133800Y0071300D02*
X0128800Y0071300D01*
X0128800Y0081300D02*
X0133800Y0081300D01*
X0133800Y0091300D02*
X0128800Y0091300D01*
X0128800Y0151300D02*
X0126300Y0153800D01*
X0126300Y0158800D01*
X0128800Y0161300D01*
X0126300Y0163800D01*
X0126300Y0168800D01*
X0128800Y0171300D01*
X0126300Y0173800D01*
X0126300Y0178800D01*
X0128800Y0181300D01*
X0126300Y0183800D01*
X0126300Y0188800D01*
X0128800Y0191300D01*
X0126300Y0193800D01*
X0126300Y0198800D01*
X0128800Y0201300D01*
X0126300Y0203800D01*
X0126300Y0208800D01*
X0128800Y0211300D01*
X0133800Y0211300D01*
X0136300Y0208800D01*
X0136300Y0203800D01*
X0133800Y0201300D01*
X0136300Y0198800D01*
X0136300Y0193800D01*
X0133800Y0191300D01*
X0128800Y0191300D01*
X0133800Y0191300D02*
X0136300Y0188800D01*
X0136300Y0183800D01*
X0133800Y0181300D01*
X0136300Y0178800D01*
X0136300Y0173800D01*
X0133800Y0171300D01*
X0136300Y0168800D01*
X0136300Y0163800D01*
X0133800Y0161300D01*
X0136300Y0158800D01*
X0136300Y0153800D01*
X0133800Y0151300D01*
X0128800Y0151300D01*
X0128800Y0161300D02*
X0133800Y0161300D01*
X0133800Y0171300D02*
X0128800Y0171300D01*
X0128800Y0181300D02*
X0133800Y0181300D01*
X0133800Y0201300D02*
X0128800Y0201300D01*
D11*
X0138746Y0200290D02*
X0138746Y0198038D01*
X0143250Y0198038D01*
X0141749Y0198038D02*
X0141749Y0200290D01*
X0140998Y0201041D01*
X0139497Y0201041D01*
X0138746Y0200290D01*
X0140247Y0202642D02*
X0138746Y0204143D01*
X0143250Y0204143D01*
X0143250Y0202642D02*
X0143250Y0205645D01*
X0142499Y0207246D02*
X0139497Y0210249D01*
X0142499Y0210249D01*
X0143250Y0209498D01*
X0143250Y0207997D01*
X0142499Y0207246D01*
X0139497Y0207246D01*
X0138746Y0207997D01*
X0138746Y0209498D01*
X0139497Y0210249D01*
X0138746Y0196437D02*
X0138746Y0194936D01*
X0138746Y0195686D02*
X0142499Y0195686D01*
X0143250Y0194936D01*
X0143250Y0194185D01*
X0142499Y0193434D01*
X0113734Y0128788D02*
X0113726Y0124285D01*
X0112225Y0124287D02*
X0115228Y0124282D01*
X0112230Y0127290D02*
X0113734Y0128788D01*
X0110630Y0128043D02*
X0110628Y0126542D01*
X0109876Y0125793D01*
X0107624Y0125797D01*
X0107621Y0124295D02*
X0107629Y0128799D01*
X0109881Y0128795D01*
X0110630Y0128043D01*
X0106028Y0128802D02*
X0104526Y0128805D01*
X0105277Y0128803D02*
X0105271Y0125050D01*
X0104519Y0124301D01*
X0103768Y0124302D01*
X0103019Y0125054D01*
X0120097Y0053460D02*
X0119346Y0052710D01*
X0119346Y0051208D01*
X0120097Y0050458D01*
X0120847Y0050458D01*
X0121598Y0051208D01*
X0121598Y0053460D01*
X0123099Y0053460D02*
X0120097Y0053460D01*
X0123099Y0053460D02*
X0123850Y0052710D01*
X0123850Y0051208D01*
X0123099Y0050458D01*
X0121598Y0048856D02*
X0122349Y0048106D01*
X0122349Y0045854D01*
X0123850Y0045854D02*
X0119346Y0045854D01*
X0119346Y0048106D01*
X0120097Y0048856D01*
X0121598Y0048856D01*
X0119346Y0044253D02*
X0119346Y0042751D01*
X0119346Y0043502D02*
X0123099Y0043502D01*
X0123850Y0042751D01*
X0123850Y0042001D01*
X0123099Y0041250D01*
X0081210Y0042053D02*
X0081210Y0042803D01*
X0080459Y0043554D01*
X0078958Y0043554D01*
X0078207Y0042803D01*
X0081210Y0042053D02*
X0078207Y0039050D01*
X0081210Y0039050D01*
X0067513Y0021354D02*
X0067513Y0016850D01*
X0069014Y0016850D02*
X0066011Y0016850D01*
X0064410Y0016850D02*
X0061407Y0021354D01*
X0064410Y0021354D02*
X0061407Y0016850D01*
X0066011Y0019853D02*
X0067513Y0021354D01*
X0061710Y0039050D02*
X0058707Y0039050D01*
X0060209Y0039050D02*
X0060209Y0043554D01*
X0058707Y0042053D01*
X0013850Y0042001D02*
X0013850Y0042751D01*
X0013099Y0043502D01*
X0009346Y0043502D01*
X0009346Y0042751D02*
X0009346Y0044253D01*
X0009346Y0045854D02*
X0009346Y0048106D01*
X0010097Y0048856D01*
X0011598Y0048856D01*
X0012349Y0048106D01*
X0012349Y0045854D01*
X0013850Y0045854D02*
X0009346Y0045854D01*
X0009346Y0050458D02*
X0009346Y0053460D01*
X0010097Y0053460D01*
X0013099Y0050458D01*
X0013850Y0050458D01*
X0013850Y0042001D02*
X0013099Y0041250D01*
X0037001Y0123750D02*
X0037751Y0123750D01*
X0038502Y0124501D01*
X0038502Y0128254D01*
X0037751Y0128254D02*
X0039253Y0128254D01*
X0040854Y0128254D02*
X0043106Y0128254D01*
X0043856Y0127503D01*
X0043856Y0126002D01*
X0043106Y0125251D01*
X0040854Y0125251D01*
X0040854Y0123750D02*
X0040854Y0128254D01*
X0037001Y0123750D02*
X0036250Y0124501D01*
X0045458Y0123750D02*
X0048460Y0126753D01*
X0048460Y0127503D01*
X0047710Y0128254D01*
X0046208Y0128254D01*
X0045458Y0127503D01*
X0045458Y0123750D02*
X0048460Y0123750D01*
X0032499Y0198038D02*
X0033250Y0198789D01*
X0033250Y0199539D01*
X0032499Y0200290D01*
X0028746Y0200290D01*
X0028746Y0199539D02*
X0028746Y0201041D01*
X0028746Y0202642D02*
X0028746Y0204894D01*
X0029497Y0205645D01*
X0030998Y0205645D01*
X0031749Y0204894D01*
X0031749Y0202642D01*
X0033250Y0202642D02*
X0028746Y0202642D01*
X0029497Y0207246D02*
X0030247Y0207246D01*
X0030998Y0207997D01*
X0030998Y0209498D01*
X0031749Y0210249D01*
X0032499Y0210249D01*
X0033250Y0209498D01*
X0033250Y0207997D01*
X0032499Y0207246D01*
X0031749Y0207246D01*
X0030998Y0207997D01*
X0030998Y0209498D02*
X0030247Y0210249D01*
X0029497Y0210249D01*
X0028746Y0209498D01*
X0028746Y0207997D01*
X0029497Y0207246D01*
X0058707Y0224050D02*
X0061710Y0224050D01*
X0060209Y0224050D02*
X0060209Y0228554D01*
X0058707Y0227053D01*
X0061407Y0206354D02*
X0064410Y0201850D01*
X0066011Y0201850D02*
X0069014Y0204853D01*
X0069014Y0205603D01*
X0068263Y0206354D01*
X0066762Y0206354D01*
X0066011Y0205603D01*
X0064410Y0206354D02*
X0061407Y0201850D01*
X0066011Y0201850D02*
X0069014Y0201850D01*
X0078207Y0224050D02*
X0081210Y0227053D01*
X0081210Y0227803D01*
X0080459Y0228554D01*
X0078958Y0228554D01*
X0078207Y0227803D01*
X0078207Y0224050D02*
X0081210Y0224050D01*
M02*
