%
M48
M72
T01C0.04000
T02C0.04700
%
T01
X21300Y46300
X21300Y56300
X21300Y66300
X21300Y76300
X21300Y86300
X21300Y96300
X41300Y116300
X51300Y116300
X61300Y116300
X71300Y116300
X81300Y116300
X91300Y116300
X101300Y116300
X111300Y116300
X111300Y136239
X101300Y136256
X91300Y136274
X81300Y136291
X71300Y136309
X61300Y136326
X51300Y136344
X41300Y136361
X21300Y156300
X21300Y166300
X21300Y176300
X21300Y186300
X21300Y196300
X21300Y206300
X131300Y206300
X131300Y196300
X131300Y186300
X131300Y176300
X131300Y166300
X131300Y156300
X131300Y96300
X131300Y86300
X131300Y76300
X131300Y66300
X131300Y56300
X131300Y46300
T02
X86143Y31300
X66457Y31300
X66457Y216300
X86143Y216300
M30
