G75*
%MOIN*%
%OFA0B0*%
%FSLAX25Y25*%
%IPPOS*%
%LPD*%
%AMOC8*
5,1,8,0,0,1.08239X$1,22.5*
%
%ADD10C,0.00600*%
%ADD11C,0.06000*%
%ADD12C,0.07050*%
D10*
X0001300Y0001300D02*
X0001300Y0246300D01*
X0151300Y0246300D01*
X0151300Y0001300D01*
X0001300Y0001300D01*
D11*
X0018300Y0046300D02*
X0024300Y0046300D01*
X0024300Y0056300D02*
X0018300Y0056300D01*
X0018300Y0066300D02*
X0024300Y0066300D01*
X0024300Y0076300D02*
X0018300Y0076300D01*
X0018300Y0086300D02*
X0024300Y0086300D01*
X0024300Y0096300D02*
X0018300Y0096300D01*
X0041300Y0113300D02*
X0041300Y0119300D01*
X0041295Y0133361D02*
X0041305Y0139361D01*
X0051305Y0139344D02*
X0051295Y0133344D01*
X0051300Y0119300D02*
X0051300Y0113300D01*
X0061300Y0113300D02*
X0061300Y0119300D01*
X0061295Y0133326D02*
X0061305Y0139326D01*
X0071305Y0139309D02*
X0071295Y0133309D01*
X0071300Y0119300D02*
X0071300Y0113300D01*
X0081300Y0113300D02*
X0081300Y0119300D01*
X0081295Y0133291D02*
X0081305Y0139291D01*
X0091305Y0139274D02*
X0091295Y0133274D01*
X0091300Y0119300D02*
X0091300Y0113300D01*
X0101300Y0113300D02*
X0101300Y0119300D01*
X0101295Y0133256D02*
X0101305Y0139256D01*
X0111305Y0139239D02*
X0111295Y0133239D01*
X0111300Y0119300D02*
X0111300Y0113300D01*
X0128300Y0096300D02*
X0134300Y0096300D01*
X0134300Y0086300D02*
X0128300Y0086300D01*
X0128300Y0076300D02*
X0134300Y0076300D01*
X0134300Y0066300D02*
X0128300Y0066300D01*
X0128300Y0056300D02*
X0134300Y0056300D01*
X0134300Y0046300D02*
X0128300Y0046300D01*
X0128300Y0156300D02*
X0134300Y0156300D01*
X0134300Y0166300D02*
X0128300Y0166300D01*
X0128300Y0176300D02*
X0134300Y0176300D01*
X0134300Y0186300D02*
X0128300Y0186300D01*
X0128300Y0196300D02*
X0134300Y0196300D01*
X0134300Y0206300D02*
X0128300Y0206300D01*
X0024300Y0206300D02*
X0018300Y0206300D01*
X0018300Y0196300D02*
X0024300Y0196300D01*
X0024300Y0186300D02*
X0018300Y0186300D01*
X0018300Y0176300D02*
X0024300Y0176300D01*
X0024300Y0166300D02*
X0018300Y0166300D01*
X0018300Y0156300D02*
X0024300Y0156300D01*
D12*
X0066457Y0212775D02*
X0066457Y0219825D01*
X0086143Y0219825D02*
X0086143Y0212775D01*
X0086143Y0034825D02*
X0086143Y0027775D01*
X0066457Y0027775D02*
X0066457Y0034825D01*
M02*
