%
M48
M72
T01C0.04000
T02C0.04700
%
T01
X121300Y16300
X121300Y26300
X121300Y36300
X121300Y46300
X121300Y56300
X121300Y66300
X121300Y76300
X121300Y86300
X96300Y106300
X96300Y116300
X96300Y126300
X96300Y146300
X96300Y156300
X96300Y166300
X31579Y136308
X31021Y146292
X176300Y146300
X176300Y156300
X176300Y166300
X176300Y126300
X176300Y116300
X176300Y106300
X221300Y101300
X221300Y91300
X221300Y81300
X221300Y71300
X221300Y61300
X221300Y51300
T02
X33800Y56300
X33800Y76300
X161300Y23800
X181300Y23800
M30
