G75*
%MOIN*%
%OFA0B0*%
%FSLAX25Y25*%
%IPPOS*%
%LPD*%
%AMOC8*
5,1,8,0,0,1.08239X$1,22.5*
%
%ADD10C,0.00000*%
%ADD11C,0.00600*%
%ADD12C,0.00500*%
D10*
X0001000Y0001000D02*
X0001000Y0245961D01*
X0199701Y0245961D01*
X0199701Y0001000D01*
X0001000Y0001000D01*
D11*
X0023500Y0036000D02*
X0021000Y0038500D01*
X0021000Y0043500D01*
X0023500Y0046000D01*
X0021000Y0048500D01*
X0021000Y0053500D01*
X0023500Y0056000D01*
X0028500Y0056000D01*
X0031000Y0053500D01*
X0031000Y0048500D01*
X0028500Y0046000D01*
X0031000Y0043500D01*
X0031000Y0038500D01*
X0028500Y0036000D01*
X0023500Y0036000D01*
X0023500Y0046000D02*
X0028500Y0046000D01*
X0028500Y0056000D02*
X0031000Y0058500D01*
X0031000Y0063500D01*
X0028500Y0066000D01*
X0031000Y0068500D01*
X0031000Y0073500D01*
X0028500Y0076000D01*
X0031000Y0078500D01*
X0031000Y0083500D01*
X0028500Y0086000D01*
X0023500Y0086000D01*
X0021000Y0083500D01*
X0021000Y0078500D01*
X0023500Y0076000D01*
X0028500Y0076000D01*
X0023500Y0076000D02*
X0021000Y0073500D01*
X0021000Y0068500D01*
X0023500Y0066000D01*
X0028500Y0066000D01*
X0023500Y0066000D02*
X0021000Y0063500D01*
X0021000Y0058500D01*
X0023500Y0056000D01*
X0023500Y0086000D02*
X0021000Y0088500D01*
X0021000Y0093500D01*
X0023500Y0096000D01*
X0021000Y0098500D01*
X0021000Y0103500D01*
X0023500Y0106000D01*
X0021000Y0108500D01*
X0021000Y0113500D01*
X0023500Y0116000D01*
X0028500Y0116000D01*
X0031000Y0113500D01*
X0031000Y0108500D01*
X0028500Y0106000D01*
X0031000Y0103500D01*
X0031000Y0098500D01*
X0028500Y0096000D01*
X0031000Y0093500D01*
X0031000Y0088500D01*
X0028500Y0086000D01*
X0028500Y0096000D02*
X0023500Y0096000D01*
X0023500Y0106000D02*
X0028500Y0106000D01*
X0016500Y0146000D02*
X0007000Y0146000D01*
X0007000Y0186000D01*
X0016500Y0186000D01*
X0016500Y0179500D01*
X0016500Y0186000D02*
X0042500Y0186000D01*
X0043500Y0186000D01*
X0043500Y0146000D01*
X0042500Y0146000D01*
X0016500Y0146000D01*
X0016500Y0152500D01*
X0016500Y0159500D02*
X0016500Y0172500D01*
X0035200Y0176000D02*
X0035202Y0176089D01*
X0035208Y0176178D01*
X0035218Y0176267D01*
X0035232Y0176355D01*
X0035249Y0176442D01*
X0035271Y0176528D01*
X0035297Y0176614D01*
X0035326Y0176698D01*
X0035359Y0176781D01*
X0035395Y0176862D01*
X0035436Y0176942D01*
X0035479Y0177019D01*
X0035526Y0177095D01*
X0035577Y0177168D01*
X0035630Y0177239D01*
X0035687Y0177308D01*
X0035747Y0177374D01*
X0035810Y0177438D01*
X0035875Y0177498D01*
X0035943Y0177556D01*
X0036014Y0177610D01*
X0036087Y0177661D01*
X0036162Y0177709D01*
X0036239Y0177754D01*
X0036318Y0177795D01*
X0036399Y0177832D01*
X0036481Y0177866D01*
X0036565Y0177897D01*
X0036650Y0177923D01*
X0036736Y0177946D01*
X0036823Y0177964D01*
X0036911Y0177979D01*
X0037000Y0177990D01*
X0037089Y0177997D01*
X0037178Y0178000D01*
X0037267Y0177999D01*
X0037356Y0177994D01*
X0037444Y0177985D01*
X0037533Y0177972D01*
X0037620Y0177955D01*
X0037707Y0177935D01*
X0037793Y0177910D01*
X0037877Y0177882D01*
X0037960Y0177850D01*
X0038042Y0177814D01*
X0038122Y0177775D01*
X0038200Y0177732D01*
X0038276Y0177686D01*
X0038350Y0177636D01*
X0038422Y0177583D01*
X0038491Y0177527D01*
X0038558Y0177468D01*
X0038622Y0177406D01*
X0038683Y0177342D01*
X0038742Y0177274D01*
X0038797Y0177204D01*
X0038849Y0177132D01*
X0038898Y0177057D01*
X0038943Y0176981D01*
X0038985Y0176902D01*
X0039023Y0176822D01*
X0039058Y0176740D01*
X0039089Y0176656D01*
X0039117Y0176571D01*
X0039140Y0176485D01*
X0039160Y0176398D01*
X0039176Y0176311D01*
X0039188Y0176222D01*
X0039196Y0176134D01*
X0039200Y0176045D01*
X0039200Y0175955D01*
X0039196Y0175866D01*
X0039188Y0175778D01*
X0039176Y0175689D01*
X0039160Y0175602D01*
X0039140Y0175515D01*
X0039117Y0175429D01*
X0039089Y0175344D01*
X0039058Y0175260D01*
X0039023Y0175178D01*
X0038985Y0175098D01*
X0038943Y0175019D01*
X0038898Y0174943D01*
X0038849Y0174868D01*
X0038797Y0174796D01*
X0038742Y0174726D01*
X0038683Y0174658D01*
X0038622Y0174594D01*
X0038558Y0174532D01*
X0038491Y0174473D01*
X0038422Y0174417D01*
X0038350Y0174364D01*
X0038276Y0174314D01*
X0038200Y0174268D01*
X0038122Y0174225D01*
X0038042Y0174186D01*
X0037960Y0174150D01*
X0037877Y0174118D01*
X0037793Y0174090D01*
X0037707Y0174065D01*
X0037620Y0174045D01*
X0037533Y0174028D01*
X0037444Y0174015D01*
X0037356Y0174006D01*
X0037267Y0174001D01*
X0037178Y0174000D01*
X0037089Y0174003D01*
X0037000Y0174010D01*
X0036911Y0174021D01*
X0036823Y0174036D01*
X0036736Y0174054D01*
X0036650Y0174077D01*
X0036565Y0174103D01*
X0036481Y0174134D01*
X0036399Y0174168D01*
X0036318Y0174205D01*
X0036239Y0174246D01*
X0036162Y0174291D01*
X0036087Y0174339D01*
X0036014Y0174390D01*
X0035943Y0174444D01*
X0035875Y0174502D01*
X0035810Y0174562D01*
X0035747Y0174626D01*
X0035687Y0174692D01*
X0035630Y0174761D01*
X0035577Y0174832D01*
X0035526Y0174905D01*
X0035479Y0174981D01*
X0035436Y0175058D01*
X0035395Y0175138D01*
X0035359Y0175219D01*
X0035326Y0175302D01*
X0035297Y0175386D01*
X0035271Y0175472D01*
X0035249Y0175558D01*
X0035232Y0175645D01*
X0035218Y0175733D01*
X0035208Y0175822D01*
X0035202Y0175911D01*
X0035200Y0176000D01*
X0042500Y0186000D02*
X0042500Y0146000D01*
X0035200Y0156000D02*
X0035202Y0156089D01*
X0035208Y0156178D01*
X0035218Y0156267D01*
X0035232Y0156355D01*
X0035249Y0156442D01*
X0035271Y0156528D01*
X0035297Y0156614D01*
X0035326Y0156698D01*
X0035359Y0156781D01*
X0035395Y0156862D01*
X0035436Y0156942D01*
X0035479Y0157019D01*
X0035526Y0157095D01*
X0035577Y0157168D01*
X0035630Y0157239D01*
X0035687Y0157308D01*
X0035747Y0157374D01*
X0035810Y0157438D01*
X0035875Y0157498D01*
X0035943Y0157556D01*
X0036014Y0157610D01*
X0036087Y0157661D01*
X0036162Y0157709D01*
X0036239Y0157754D01*
X0036318Y0157795D01*
X0036399Y0157832D01*
X0036481Y0157866D01*
X0036565Y0157897D01*
X0036650Y0157923D01*
X0036736Y0157946D01*
X0036823Y0157964D01*
X0036911Y0157979D01*
X0037000Y0157990D01*
X0037089Y0157997D01*
X0037178Y0158000D01*
X0037267Y0157999D01*
X0037356Y0157994D01*
X0037444Y0157985D01*
X0037533Y0157972D01*
X0037620Y0157955D01*
X0037707Y0157935D01*
X0037793Y0157910D01*
X0037877Y0157882D01*
X0037960Y0157850D01*
X0038042Y0157814D01*
X0038122Y0157775D01*
X0038200Y0157732D01*
X0038276Y0157686D01*
X0038350Y0157636D01*
X0038422Y0157583D01*
X0038491Y0157527D01*
X0038558Y0157468D01*
X0038622Y0157406D01*
X0038683Y0157342D01*
X0038742Y0157274D01*
X0038797Y0157204D01*
X0038849Y0157132D01*
X0038898Y0157057D01*
X0038943Y0156981D01*
X0038985Y0156902D01*
X0039023Y0156822D01*
X0039058Y0156740D01*
X0039089Y0156656D01*
X0039117Y0156571D01*
X0039140Y0156485D01*
X0039160Y0156398D01*
X0039176Y0156311D01*
X0039188Y0156222D01*
X0039196Y0156134D01*
X0039200Y0156045D01*
X0039200Y0155955D01*
X0039196Y0155866D01*
X0039188Y0155778D01*
X0039176Y0155689D01*
X0039160Y0155602D01*
X0039140Y0155515D01*
X0039117Y0155429D01*
X0039089Y0155344D01*
X0039058Y0155260D01*
X0039023Y0155178D01*
X0038985Y0155098D01*
X0038943Y0155019D01*
X0038898Y0154943D01*
X0038849Y0154868D01*
X0038797Y0154796D01*
X0038742Y0154726D01*
X0038683Y0154658D01*
X0038622Y0154594D01*
X0038558Y0154532D01*
X0038491Y0154473D01*
X0038422Y0154417D01*
X0038350Y0154364D01*
X0038276Y0154314D01*
X0038200Y0154268D01*
X0038122Y0154225D01*
X0038042Y0154186D01*
X0037960Y0154150D01*
X0037877Y0154118D01*
X0037793Y0154090D01*
X0037707Y0154065D01*
X0037620Y0154045D01*
X0037533Y0154028D01*
X0037444Y0154015D01*
X0037356Y0154006D01*
X0037267Y0154001D01*
X0037178Y0154000D01*
X0037089Y0154003D01*
X0037000Y0154010D01*
X0036911Y0154021D01*
X0036823Y0154036D01*
X0036736Y0154054D01*
X0036650Y0154077D01*
X0036565Y0154103D01*
X0036481Y0154134D01*
X0036399Y0154168D01*
X0036318Y0154205D01*
X0036239Y0154246D01*
X0036162Y0154291D01*
X0036087Y0154339D01*
X0036014Y0154390D01*
X0035943Y0154444D01*
X0035875Y0154502D01*
X0035810Y0154562D01*
X0035747Y0154626D01*
X0035687Y0154692D01*
X0035630Y0154761D01*
X0035577Y0154832D01*
X0035526Y0154905D01*
X0035479Y0154981D01*
X0035436Y0155058D01*
X0035395Y0155138D01*
X0035359Y0155219D01*
X0035326Y0155302D01*
X0035297Y0155386D01*
X0035271Y0155472D01*
X0035249Y0155558D01*
X0035232Y0155645D01*
X0035218Y0155733D01*
X0035208Y0155822D01*
X0035202Y0155911D01*
X0035200Y0156000D01*
X0071000Y0158500D02*
X0073500Y0156000D01*
X0078500Y0156000D01*
X0081000Y0158500D01*
X0083500Y0156000D01*
X0088500Y0156000D01*
X0091000Y0158500D01*
X0091000Y0163500D01*
X0088500Y0166000D01*
X0083500Y0166000D01*
X0081000Y0163500D01*
X0081000Y0158500D01*
X0081000Y0163500D02*
X0078500Y0166000D01*
X0073500Y0166000D01*
X0071000Y0163500D01*
X0071000Y0158500D01*
X0073500Y0176000D02*
X0078500Y0176000D01*
X0081000Y0178500D01*
X0083500Y0176000D01*
X0088500Y0176000D01*
X0091000Y0178500D01*
X0091000Y0183500D01*
X0088500Y0186000D01*
X0083500Y0186000D01*
X0081000Y0183500D01*
X0081000Y0178500D01*
X0081000Y0183500D02*
X0078500Y0186000D01*
X0073500Y0186000D01*
X0071000Y0183500D01*
X0071000Y0178500D01*
X0073500Y0176000D01*
X0073500Y0201000D02*
X0078500Y0201000D01*
X0081000Y0203500D01*
X0083500Y0201000D01*
X0088500Y0201000D01*
X0091000Y0203500D01*
X0091000Y0208500D01*
X0088500Y0211000D01*
X0083500Y0211000D01*
X0081000Y0208500D01*
X0081000Y0203500D01*
X0081000Y0208500D02*
X0078500Y0211000D01*
X0073500Y0211000D01*
X0071000Y0208500D01*
X0071000Y0203500D01*
X0073500Y0201000D01*
X0111000Y0203500D02*
X0113500Y0201000D01*
X0118500Y0201000D01*
X0121000Y0203500D01*
X0123500Y0201000D01*
X0128500Y0201000D01*
X0131000Y0203500D01*
X0133500Y0201000D01*
X0138500Y0201000D01*
X0141000Y0203500D01*
X0141000Y0208500D01*
X0138500Y0211000D01*
X0133500Y0211000D01*
X0131000Y0208500D01*
X0131000Y0203500D01*
X0131000Y0208500D02*
X0128500Y0211000D01*
X0123500Y0211000D01*
X0121000Y0208500D01*
X0121000Y0203500D01*
X0121000Y0208500D02*
X0118500Y0211000D01*
X0113500Y0211000D01*
X0111000Y0208500D01*
X0111000Y0203500D01*
X0113500Y0166000D02*
X0111000Y0163500D01*
X0111000Y0158500D01*
X0113500Y0156000D01*
X0118500Y0156000D01*
X0121000Y0158500D01*
X0123500Y0156000D01*
X0128500Y0156000D01*
X0131000Y0158500D01*
X0133500Y0156000D01*
X0138500Y0156000D01*
X0141000Y0158500D01*
X0141000Y0163500D01*
X0138500Y0166000D01*
X0133500Y0166000D01*
X0131000Y0163500D01*
X0131000Y0158500D01*
X0131000Y0163500D02*
X0128500Y0166000D01*
X0123500Y0166000D01*
X0121000Y0163500D01*
X0121000Y0158500D01*
X0121000Y0163500D02*
X0118500Y0166000D01*
X0113500Y0166000D01*
X0088500Y0136000D02*
X0091000Y0133500D01*
X0091000Y0128500D01*
X0088500Y0126000D01*
X0083500Y0126000D01*
X0081000Y0128500D01*
X0078500Y0126000D01*
X0073500Y0126000D01*
X0071000Y0128500D01*
X0071000Y0133500D01*
X0073500Y0136000D01*
X0078500Y0136000D01*
X0081000Y0133500D01*
X0083500Y0136000D01*
X0088500Y0136000D01*
X0081000Y0133500D02*
X0081000Y0128500D01*
X0111000Y0118500D02*
X0111000Y0113500D01*
X0113500Y0111000D01*
X0118500Y0111000D01*
X0121000Y0113500D01*
X0123500Y0111000D01*
X0128500Y0111000D01*
X0131000Y0113500D01*
X0133500Y0111000D01*
X0138500Y0111000D01*
X0141000Y0113500D01*
X0141000Y0118500D01*
X0138500Y0121000D01*
X0133500Y0121000D01*
X0131000Y0118500D01*
X0131000Y0113500D01*
X0131000Y0118500D02*
X0128500Y0121000D01*
X0123500Y0121000D01*
X0121000Y0118500D01*
X0121000Y0113500D01*
X0121000Y0118500D02*
X0118500Y0121000D01*
X0113500Y0121000D01*
X0111000Y0118500D01*
X0113500Y0076000D02*
X0111000Y0073500D01*
X0111000Y0068500D01*
X0113500Y0066000D01*
X0118500Y0066000D01*
X0121000Y0068500D01*
X0123500Y0066000D01*
X0128500Y0066000D01*
X0131000Y0068500D01*
X0133500Y0066000D01*
X0138500Y0066000D01*
X0141000Y0068500D01*
X0141000Y0073500D01*
X0138500Y0076000D01*
X0133500Y0076000D01*
X0131000Y0073500D01*
X0131000Y0068500D01*
X0131000Y0073500D02*
X0128500Y0076000D01*
X0123500Y0076000D01*
X0121000Y0073500D01*
X0121000Y0068500D01*
X0121000Y0073500D02*
X0118500Y0076000D01*
X0113500Y0076000D01*
X0106000Y0050000D02*
X0146000Y0050000D01*
X0146000Y0040500D01*
X0139500Y0040500D01*
X0146000Y0040500D02*
X0146000Y0014500D01*
X0146000Y0013500D01*
X0106000Y0013500D01*
X0106000Y0014500D01*
X0106000Y0040500D01*
X0112500Y0040500D01*
X0119500Y0040500D02*
X0132500Y0040500D01*
X0134000Y0019800D02*
X0134002Y0019889D01*
X0134008Y0019978D01*
X0134018Y0020067D01*
X0134032Y0020155D01*
X0134049Y0020242D01*
X0134071Y0020328D01*
X0134097Y0020414D01*
X0134126Y0020498D01*
X0134159Y0020581D01*
X0134195Y0020662D01*
X0134236Y0020742D01*
X0134279Y0020819D01*
X0134326Y0020895D01*
X0134377Y0020968D01*
X0134430Y0021039D01*
X0134487Y0021108D01*
X0134547Y0021174D01*
X0134610Y0021238D01*
X0134675Y0021298D01*
X0134743Y0021356D01*
X0134814Y0021410D01*
X0134887Y0021461D01*
X0134962Y0021509D01*
X0135039Y0021554D01*
X0135118Y0021595D01*
X0135199Y0021632D01*
X0135281Y0021666D01*
X0135365Y0021697D01*
X0135450Y0021723D01*
X0135536Y0021746D01*
X0135623Y0021764D01*
X0135711Y0021779D01*
X0135800Y0021790D01*
X0135889Y0021797D01*
X0135978Y0021800D01*
X0136067Y0021799D01*
X0136156Y0021794D01*
X0136244Y0021785D01*
X0136333Y0021772D01*
X0136420Y0021755D01*
X0136507Y0021735D01*
X0136593Y0021710D01*
X0136677Y0021682D01*
X0136760Y0021650D01*
X0136842Y0021614D01*
X0136922Y0021575D01*
X0137000Y0021532D01*
X0137076Y0021486D01*
X0137150Y0021436D01*
X0137222Y0021383D01*
X0137291Y0021327D01*
X0137358Y0021268D01*
X0137422Y0021206D01*
X0137483Y0021142D01*
X0137542Y0021074D01*
X0137597Y0021004D01*
X0137649Y0020932D01*
X0137698Y0020857D01*
X0137743Y0020781D01*
X0137785Y0020702D01*
X0137823Y0020622D01*
X0137858Y0020540D01*
X0137889Y0020456D01*
X0137917Y0020371D01*
X0137940Y0020285D01*
X0137960Y0020198D01*
X0137976Y0020111D01*
X0137988Y0020022D01*
X0137996Y0019934D01*
X0138000Y0019845D01*
X0138000Y0019755D01*
X0137996Y0019666D01*
X0137988Y0019578D01*
X0137976Y0019489D01*
X0137960Y0019402D01*
X0137940Y0019315D01*
X0137917Y0019229D01*
X0137889Y0019144D01*
X0137858Y0019060D01*
X0137823Y0018978D01*
X0137785Y0018898D01*
X0137743Y0018819D01*
X0137698Y0018743D01*
X0137649Y0018668D01*
X0137597Y0018596D01*
X0137542Y0018526D01*
X0137483Y0018458D01*
X0137422Y0018394D01*
X0137358Y0018332D01*
X0137291Y0018273D01*
X0137222Y0018217D01*
X0137150Y0018164D01*
X0137076Y0018114D01*
X0137000Y0018068D01*
X0136922Y0018025D01*
X0136842Y0017986D01*
X0136760Y0017950D01*
X0136677Y0017918D01*
X0136593Y0017890D01*
X0136507Y0017865D01*
X0136420Y0017845D01*
X0136333Y0017828D01*
X0136244Y0017815D01*
X0136156Y0017806D01*
X0136067Y0017801D01*
X0135978Y0017800D01*
X0135889Y0017803D01*
X0135800Y0017810D01*
X0135711Y0017821D01*
X0135623Y0017836D01*
X0135536Y0017854D01*
X0135450Y0017877D01*
X0135365Y0017903D01*
X0135281Y0017934D01*
X0135199Y0017968D01*
X0135118Y0018005D01*
X0135039Y0018046D01*
X0134962Y0018091D01*
X0134887Y0018139D01*
X0134814Y0018190D01*
X0134743Y0018244D01*
X0134675Y0018302D01*
X0134610Y0018362D01*
X0134547Y0018426D01*
X0134487Y0018492D01*
X0134430Y0018561D01*
X0134377Y0018632D01*
X0134326Y0018705D01*
X0134279Y0018781D01*
X0134236Y0018858D01*
X0134195Y0018938D01*
X0134159Y0019019D01*
X0134126Y0019102D01*
X0134097Y0019186D01*
X0134071Y0019272D01*
X0134049Y0019358D01*
X0134032Y0019445D01*
X0134018Y0019533D01*
X0134008Y0019622D01*
X0134002Y0019711D01*
X0134000Y0019800D01*
X0146000Y0014500D02*
X0106000Y0014500D01*
X0114000Y0019800D02*
X0114002Y0019889D01*
X0114008Y0019978D01*
X0114018Y0020067D01*
X0114032Y0020155D01*
X0114049Y0020242D01*
X0114071Y0020328D01*
X0114097Y0020414D01*
X0114126Y0020498D01*
X0114159Y0020581D01*
X0114195Y0020662D01*
X0114236Y0020742D01*
X0114279Y0020819D01*
X0114326Y0020895D01*
X0114377Y0020968D01*
X0114430Y0021039D01*
X0114487Y0021108D01*
X0114547Y0021174D01*
X0114610Y0021238D01*
X0114675Y0021298D01*
X0114743Y0021356D01*
X0114814Y0021410D01*
X0114887Y0021461D01*
X0114962Y0021509D01*
X0115039Y0021554D01*
X0115118Y0021595D01*
X0115199Y0021632D01*
X0115281Y0021666D01*
X0115365Y0021697D01*
X0115450Y0021723D01*
X0115536Y0021746D01*
X0115623Y0021764D01*
X0115711Y0021779D01*
X0115800Y0021790D01*
X0115889Y0021797D01*
X0115978Y0021800D01*
X0116067Y0021799D01*
X0116156Y0021794D01*
X0116244Y0021785D01*
X0116333Y0021772D01*
X0116420Y0021755D01*
X0116507Y0021735D01*
X0116593Y0021710D01*
X0116677Y0021682D01*
X0116760Y0021650D01*
X0116842Y0021614D01*
X0116922Y0021575D01*
X0117000Y0021532D01*
X0117076Y0021486D01*
X0117150Y0021436D01*
X0117222Y0021383D01*
X0117291Y0021327D01*
X0117358Y0021268D01*
X0117422Y0021206D01*
X0117483Y0021142D01*
X0117542Y0021074D01*
X0117597Y0021004D01*
X0117649Y0020932D01*
X0117698Y0020857D01*
X0117743Y0020781D01*
X0117785Y0020702D01*
X0117823Y0020622D01*
X0117858Y0020540D01*
X0117889Y0020456D01*
X0117917Y0020371D01*
X0117940Y0020285D01*
X0117960Y0020198D01*
X0117976Y0020111D01*
X0117988Y0020022D01*
X0117996Y0019934D01*
X0118000Y0019845D01*
X0118000Y0019755D01*
X0117996Y0019666D01*
X0117988Y0019578D01*
X0117976Y0019489D01*
X0117960Y0019402D01*
X0117940Y0019315D01*
X0117917Y0019229D01*
X0117889Y0019144D01*
X0117858Y0019060D01*
X0117823Y0018978D01*
X0117785Y0018898D01*
X0117743Y0018819D01*
X0117698Y0018743D01*
X0117649Y0018668D01*
X0117597Y0018596D01*
X0117542Y0018526D01*
X0117483Y0018458D01*
X0117422Y0018394D01*
X0117358Y0018332D01*
X0117291Y0018273D01*
X0117222Y0018217D01*
X0117150Y0018164D01*
X0117076Y0018114D01*
X0117000Y0018068D01*
X0116922Y0018025D01*
X0116842Y0017986D01*
X0116760Y0017950D01*
X0116677Y0017918D01*
X0116593Y0017890D01*
X0116507Y0017865D01*
X0116420Y0017845D01*
X0116333Y0017828D01*
X0116244Y0017815D01*
X0116156Y0017806D01*
X0116067Y0017801D01*
X0115978Y0017800D01*
X0115889Y0017803D01*
X0115800Y0017810D01*
X0115711Y0017821D01*
X0115623Y0017836D01*
X0115536Y0017854D01*
X0115450Y0017877D01*
X0115365Y0017903D01*
X0115281Y0017934D01*
X0115199Y0017968D01*
X0115118Y0018005D01*
X0115039Y0018046D01*
X0114962Y0018091D01*
X0114887Y0018139D01*
X0114814Y0018190D01*
X0114743Y0018244D01*
X0114675Y0018302D01*
X0114610Y0018362D01*
X0114547Y0018426D01*
X0114487Y0018492D01*
X0114430Y0018561D01*
X0114377Y0018632D01*
X0114326Y0018705D01*
X0114279Y0018781D01*
X0114236Y0018858D01*
X0114195Y0018938D01*
X0114159Y0019019D01*
X0114126Y0019102D01*
X0114097Y0019186D01*
X0114071Y0019272D01*
X0114049Y0019358D01*
X0114032Y0019445D01*
X0114018Y0019533D01*
X0114008Y0019622D01*
X0114002Y0019711D01*
X0114000Y0019800D01*
X0106000Y0040500D02*
X0106000Y0050000D01*
X0176000Y0113500D02*
X0178500Y0111000D01*
X0183500Y0111000D01*
X0186000Y0113500D01*
X0186000Y0118500D01*
X0183500Y0121000D01*
X0186000Y0123500D01*
X0186000Y0128500D01*
X0183500Y0131000D01*
X0178500Y0131000D01*
X0176000Y0128500D01*
X0176000Y0123500D01*
X0178500Y0121000D01*
X0183500Y0121000D01*
X0178500Y0121000D02*
X0176000Y0118500D01*
X0176000Y0113500D01*
X0178500Y0131000D02*
X0176000Y0133500D01*
X0176000Y0138500D01*
X0178500Y0141000D01*
X0176000Y0143500D01*
X0176000Y0148500D01*
X0178500Y0151000D01*
X0176000Y0153500D01*
X0176000Y0158500D01*
X0178500Y0161000D01*
X0176000Y0163500D01*
X0176000Y0168500D01*
X0178500Y0171000D01*
X0183500Y0171000D01*
X0186000Y0168500D01*
X0186000Y0163500D01*
X0183500Y0161000D01*
X0186000Y0158500D01*
X0186000Y0153500D01*
X0183500Y0151000D01*
X0186000Y0148500D01*
X0186000Y0143500D01*
X0183500Y0141000D01*
X0186000Y0138500D01*
X0186000Y0133500D01*
X0183500Y0131000D01*
X0183500Y0141000D02*
X0178500Y0141000D01*
X0178500Y0151000D02*
X0183500Y0151000D01*
X0183500Y0161000D02*
X0178500Y0161000D01*
X0031000Y0203500D02*
X0028500Y0201000D01*
X0023500Y0201000D01*
X0021000Y0203500D01*
X0018500Y0201000D01*
X0013500Y0201000D01*
X0011000Y0203500D01*
X0011000Y0208500D01*
X0013500Y0211000D01*
X0018500Y0211000D01*
X0021000Y0208500D01*
X0023500Y0211000D01*
X0028500Y0211000D01*
X0031000Y0208500D01*
X0031000Y0203500D01*
X0021000Y0203500D02*
X0021000Y0208500D01*
D12*
X0021659Y0213450D02*
X0021659Y0217954D01*
X0020158Y0216453D01*
X0018556Y0217203D02*
X0018556Y0215702D01*
X0017806Y0214951D01*
X0015554Y0214951D01*
X0015554Y0213450D02*
X0015554Y0217954D01*
X0017806Y0217954D01*
X0018556Y0217203D01*
X0020158Y0213450D02*
X0023160Y0213450D01*
X0013202Y0214201D02*
X0013202Y0217954D01*
X0012451Y0217954D02*
X0013953Y0217954D01*
X0013202Y0214201D02*
X0012451Y0213450D01*
X0011701Y0213450D01*
X0010950Y0214201D01*
X0013750Y0179649D02*
X0013750Y0176646D01*
X0013750Y0178147D02*
X0009246Y0178147D01*
X0010747Y0176646D01*
X0009246Y0175045D02*
X0013750Y0172042D01*
X0013750Y0175045D02*
X0009246Y0172042D01*
X0070950Y0169201D02*
X0071701Y0168450D01*
X0072451Y0168450D01*
X0073202Y0169201D01*
X0073202Y0172954D01*
X0072451Y0172954D02*
X0073953Y0172954D01*
X0075554Y0172954D02*
X0077806Y0172954D01*
X0078556Y0172203D01*
X0078556Y0170702D01*
X0077806Y0169951D01*
X0075554Y0169951D01*
X0075554Y0168450D02*
X0075554Y0172954D01*
X0080158Y0170702D02*
X0080158Y0169201D01*
X0080908Y0168450D01*
X0082410Y0168450D01*
X0083160Y0169201D01*
X0083160Y0169951D01*
X0082410Y0170702D01*
X0080158Y0170702D01*
X0081659Y0172203D01*
X0083160Y0172954D01*
X0082410Y0188450D02*
X0082410Y0192954D01*
X0080158Y0190702D01*
X0083160Y0190702D01*
X0078556Y0190702D02*
X0077806Y0189951D01*
X0075554Y0189951D01*
X0075554Y0188450D02*
X0075554Y0192954D01*
X0077806Y0192954D01*
X0078556Y0192203D01*
X0078556Y0190702D01*
X0073953Y0192954D02*
X0072451Y0192954D01*
X0073202Y0192954D02*
X0073202Y0189201D01*
X0072451Y0188450D01*
X0071701Y0188450D01*
X0070950Y0189201D01*
X0071701Y0213450D02*
X0072451Y0213450D01*
X0073202Y0214201D01*
X0073202Y0217954D01*
X0072451Y0217954D02*
X0073953Y0217954D01*
X0075554Y0217954D02*
X0077806Y0217954D01*
X0078556Y0217203D01*
X0078556Y0215702D01*
X0077806Y0214951D01*
X0075554Y0214951D01*
X0075554Y0213450D02*
X0075554Y0217954D01*
X0080158Y0216453D02*
X0081659Y0217954D01*
X0081659Y0213450D01*
X0080158Y0213450D02*
X0083160Y0213450D01*
X0084762Y0213450D02*
X0087764Y0213450D01*
X0086263Y0213450D02*
X0086263Y0217954D01*
X0084762Y0216453D01*
X0071701Y0213450D02*
X0070950Y0214201D01*
X0110950Y0214201D02*
X0111701Y0213450D01*
X0112451Y0213450D01*
X0113202Y0214201D01*
X0113202Y0217954D01*
X0112451Y0217954D02*
X0113953Y0217954D01*
X0115554Y0217954D02*
X0117806Y0217954D01*
X0118556Y0217203D01*
X0118556Y0215702D01*
X0117806Y0214951D01*
X0115554Y0214951D01*
X0115554Y0213450D02*
X0115554Y0217954D01*
X0120158Y0217203D02*
X0120908Y0217954D01*
X0122410Y0217954D01*
X0123160Y0217203D01*
X0123160Y0216453D01*
X0122410Y0215702D01*
X0123160Y0214951D01*
X0123160Y0214201D01*
X0122410Y0213450D01*
X0120908Y0213450D01*
X0120158Y0214201D01*
X0121659Y0215702D02*
X0122410Y0215702D01*
X0122410Y0172954D02*
X0120908Y0172954D01*
X0120158Y0172203D01*
X0120158Y0171453D01*
X0120908Y0170702D01*
X0123160Y0170702D01*
X0123160Y0172203D02*
X0122410Y0172954D01*
X0123160Y0172203D02*
X0123160Y0169201D01*
X0122410Y0168450D01*
X0120908Y0168450D01*
X0120158Y0169201D01*
X0118556Y0170702D02*
X0117806Y0169951D01*
X0115554Y0169951D01*
X0115554Y0168450D02*
X0115554Y0172954D01*
X0117806Y0172954D01*
X0118556Y0172203D01*
X0118556Y0170702D01*
X0113953Y0172954D02*
X0112451Y0172954D01*
X0113202Y0172954D02*
X0113202Y0169201D01*
X0112451Y0168450D01*
X0111701Y0168450D01*
X0110950Y0169201D01*
X0083160Y0142203D02*
X0083160Y0141453D01*
X0082410Y0140702D01*
X0080908Y0140702D01*
X0080158Y0141453D01*
X0080158Y0142203D01*
X0080908Y0142954D01*
X0082410Y0142954D01*
X0083160Y0142203D01*
X0082410Y0140702D02*
X0083160Y0139951D01*
X0083160Y0139201D01*
X0082410Y0138450D01*
X0080908Y0138450D01*
X0080158Y0139201D01*
X0080158Y0139951D01*
X0080908Y0140702D01*
X0078556Y0140702D02*
X0078556Y0142203D01*
X0077806Y0142954D01*
X0075554Y0142954D01*
X0075554Y0138450D01*
X0075554Y0139951D02*
X0077806Y0139951D01*
X0078556Y0140702D01*
X0073953Y0142954D02*
X0072451Y0142954D01*
X0073202Y0142954D02*
X0073202Y0139201D01*
X0072451Y0138450D01*
X0071701Y0138450D01*
X0070950Y0139201D01*
X0110950Y0124201D02*
X0111701Y0123450D01*
X0112451Y0123450D01*
X0113202Y0124201D01*
X0113202Y0127954D01*
X0112451Y0127954D02*
X0113953Y0127954D01*
X0115554Y0127954D02*
X0117806Y0127954D01*
X0118556Y0127203D01*
X0118556Y0125702D01*
X0117806Y0124951D01*
X0115554Y0124951D01*
X0115554Y0123450D02*
X0115554Y0127954D01*
X0120158Y0126453D02*
X0121659Y0127954D01*
X0121659Y0123450D01*
X0120158Y0123450D02*
X0123160Y0123450D01*
X0124762Y0124201D02*
X0127764Y0127203D01*
X0127764Y0124201D01*
X0127014Y0123450D01*
X0125512Y0123450D01*
X0124762Y0124201D01*
X0124762Y0127203D01*
X0125512Y0127954D01*
X0127014Y0127954D01*
X0127764Y0127203D01*
X0122410Y0082954D02*
X0120908Y0082954D01*
X0120158Y0082203D01*
X0118556Y0082203D02*
X0118556Y0080702D01*
X0117806Y0079951D01*
X0115554Y0079951D01*
X0115554Y0078450D02*
X0115554Y0082954D01*
X0117806Y0082954D01*
X0118556Y0082203D01*
X0122410Y0082954D02*
X0123160Y0082203D01*
X0123160Y0081453D01*
X0120158Y0078450D01*
X0123160Y0078450D01*
X0113202Y0079201D02*
X0112451Y0078450D01*
X0111701Y0078450D01*
X0110950Y0079201D01*
X0113202Y0079201D02*
X0113202Y0082954D01*
X0112451Y0082954D02*
X0113953Y0082954D01*
X0132042Y0047754D02*
X0135045Y0043250D01*
X0136646Y0043250D02*
X0139649Y0046253D01*
X0139649Y0047003D01*
X0138898Y0047754D01*
X0137397Y0047754D01*
X0136646Y0047003D01*
X0135045Y0047754D02*
X0132042Y0043250D01*
X0136646Y0043250D02*
X0139649Y0043250D01*
X0172799Y0110950D02*
X0173550Y0111701D01*
X0173550Y0112451D01*
X0172799Y0113202D01*
X0169046Y0113202D01*
X0169046Y0112451D02*
X0169046Y0113953D01*
X0169046Y0115554D02*
X0169046Y0117806D01*
X0169797Y0118556D01*
X0171298Y0118556D01*
X0172049Y0117806D01*
X0172049Y0115554D01*
X0173550Y0115554D02*
X0169046Y0115554D01*
X0169046Y0120158D02*
X0171298Y0120158D01*
X0170547Y0121659D01*
X0170547Y0122410D01*
X0171298Y0123160D01*
X0172799Y0123160D01*
X0173550Y0122410D01*
X0173550Y0120908D01*
X0172799Y0120158D01*
X0169046Y0120158D02*
X0169046Y0123160D01*
X0018550Y0045158D02*
X0017799Y0045158D01*
X0014797Y0048160D01*
X0014046Y0048160D01*
X0014046Y0045158D01*
X0014797Y0043556D02*
X0014046Y0042806D01*
X0014046Y0040554D01*
X0018550Y0040554D01*
X0017049Y0040554D02*
X0017049Y0042806D01*
X0016298Y0043556D01*
X0014797Y0043556D01*
X0014046Y0038953D02*
X0014046Y0037451D01*
X0014046Y0038202D02*
X0017799Y0038202D01*
X0018550Y0037451D01*
X0018550Y0036701D01*
X0017799Y0035950D01*
M02*
