%
M48
M72
T01C0.04000
T02C0.04700
%
T01
X26000Y31000
X26000Y41000
X26000Y51000
X26000Y61000
X26000Y71000
X26000Y81000
X26000Y91000
X26000Y101000
X81000Y86000
X81000Y76000
X116000Y76000
X126000Y76000
X136000Y76000
X136000Y136000
X126000Y136000
X116000Y136000
X81000Y131000
X81000Y141000
X81000Y181000
X81000Y191000
X116000Y186000
X126000Y186000
X136000Y186000
X136000Y246000
X126000Y246000
X116000Y246000
X81000Y241000
X81000Y251000
X181000Y206000
X181000Y196000
X181000Y186000
X181000Y176000
X181000Y166000
X181000Y156000
T02
X141000Y28500
X121000Y28500
X23500Y161000
X23500Y181000
M30
