G75*
%MOIN*%
%OFA0B0*%
%FSLAX25Y25*%
%IPPOS*%
%LPD*%
%AMOC8*
5,1,8,0,0,1.08239X$1,22.5*
%
%ADD10C,0.06800*%
%ADD11C,0.07850*%
D10*
X0023000Y0031000D02*
X0029000Y0031000D01*
X0029000Y0041000D02*
X0023000Y0041000D01*
X0023000Y0051000D02*
X0029000Y0051000D01*
X0029000Y0061000D02*
X0023000Y0061000D01*
X0023000Y0071000D02*
X0029000Y0071000D01*
X0029000Y0081000D02*
X0023000Y0081000D01*
X0023000Y0091000D02*
X0029000Y0091000D01*
X0029000Y0101000D02*
X0023000Y0101000D01*
X0078000Y0086000D02*
X0084000Y0086000D01*
X0084000Y0076000D02*
X0078000Y0076000D01*
X0116000Y0073000D02*
X0116000Y0079000D01*
X0126000Y0079000D02*
X0126000Y0073000D01*
X0136000Y0073000D02*
X0136000Y0079000D01*
X0136000Y0133000D02*
X0136000Y0139000D01*
X0126000Y0139000D02*
X0126000Y0133000D01*
X0116000Y0133000D02*
X0116000Y0139000D01*
X0116000Y0183000D02*
X0116000Y0189000D01*
X0126000Y0189000D02*
X0126000Y0183000D01*
X0136000Y0183000D02*
X0136000Y0189000D01*
X0136000Y0243000D02*
X0136000Y0249000D01*
X0126000Y0249000D02*
X0126000Y0243000D01*
X0116000Y0243000D02*
X0116000Y0249000D01*
X0084000Y0251000D02*
X0078000Y0251000D01*
X0078000Y0241000D02*
X0084000Y0241000D01*
X0084000Y0191000D02*
X0078000Y0191000D01*
X0078000Y0181000D02*
X0084000Y0181000D01*
X0084000Y0141000D02*
X0078000Y0141000D01*
X0078000Y0131000D02*
X0084000Y0131000D01*
X0178000Y0156000D02*
X0184000Y0156000D01*
X0184000Y0166000D02*
X0178000Y0166000D01*
X0178000Y0176000D02*
X0184000Y0176000D01*
X0184000Y0186000D02*
X0178000Y0186000D01*
X0178000Y0196000D02*
X0184000Y0196000D01*
X0184000Y0206000D02*
X0178000Y0206000D01*
D11*
X0141000Y0032025D02*
X0141000Y0024975D01*
X0121000Y0024975D02*
X0121000Y0032025D01*
X0027025Y0161000D02*
X0019975Y0161000D01*
X0019975Y0181000D02*
X0027025Y0181000D01*
M02*
