%
M48
M72
T01C0.04000
T02C0.04700
%
T01
X26000Y41000
X26000Y51000
X26000Y61000
X26000Y71000
X26000Y81000
X26000Y91000
X26000Y101000
X26000Y111000
X76000Y131000
X86000Y131000
X86000Y161000
X76000Y161000
X76000Y181000
X86000Y181000
X86000Y206000
X76000Y206000
X116000Y206000
X126000Y206000
X136000Y206000
X136000Y161000
X126000Y161000
X116000Y161000
X116000Y116000
X126000Y116000
X136000Y116000
X136000Y71000
X126000Y71000
X116000Y71000
X181000Y116000
X181000Y126000
X181000Y136000
X181000Y146000
X181000Y156000
X181000Y166000
X26000Y206000
X16000Y206000
T02
X23500Y176000
X23500Y156000
X116000Y33500
X136000Y33500
M30
