G75*
%MOIN*%
%OFA0B0*%
%FSLAX25Y25*%
%IPPOS*%
%LPD*%
%AMOC8*
5,1,8,0,0,1.08239X$1,22.5*
%
%ADD10C,0.00000*%
%ADD11C,0.06000*%
%ADD12C,0.07050*%
%ADD13C,0.04400*%
D10*
X0001000Y0001000D02*
X0001000Y0245961D01*
X0199701Y0245961D01*
X0199701Y0001000D01*
X0001000Y0001000D01*
D11*
X0023000Y0041000D02*
X0029000Y0041000D01*
X0029000Y0051000D02*
X0023000Y0051000D01*
X0023000Y0061000D02*
X0029000Y0061000D01*
X0029000Y0071000D02*
X0023000Y0071000D01*
X0023000Y0081000D02*
X0029000Y0081000D01*
X0029000Y0091000D02*
X0023000Y0091000D01*
X0023000Y0101000D02*
X0029000Y0101000D01*
X0029000Y0111000D02*
X0023000Y0111000D01*
X0076000Y0128000D02*
X0076000Y0134000D01*
X0086000Y0134000D02*
X0086000Y0128000D01*
X0086000Y0158000D02*
X0086000Y0164000D01*
X0076000Y0164000D02*
X0076000Y0158000D01*
X0076000Y0178000D02*
X0076000Y0184000D01*
X0086000Y0184000D02*
X0086000Y0178000D01*
X0086000Y0203000D02*
X0086000Y0209000D01*
X0076000Y0209000D02*
X0076000Y0203000D01*
X0116000Y0203000D02*
X0116000Y0209000D01*
X0126000Y0209000D02*
X0126000Y0203000D01*
X0136000Y0203000D02*
X0136000Y0209000D01*
X0136000Y0164000D02*
X0136000Y0158000D01*
X0126000Y0158000D02*
X0126000Y0164000D01*
X0116000Y0164000D02*
X0116000Y0158000D01*
X0116000Y0119000D02*
X0116000Y0113000D01*
X0126000Y0113000D02*
X0126000Y0119000D01*
X0136000Y0119000D02*
X0136000Y0113000D01*
X0136000Y0074000D02*
X0136000Y0068000D01*
X0126000Y0068000D02*
X0126000Y0074000D01*
X0116000Y0074000D02*
X0116000Y0068000D01*
X0178000Y0116000D02*
X0184000Y0116000D01*
X0184000Y0126000D02*
X0178000Y0126000D01*
X0178000Y0136000D02*
X0184000Y0136000D01*
X0184000Y0146000D02*
X0178000Y0146000D01*
X0178000Y0156000D02*
X0184000Y0156000D01*
X0184000Y0166000D02*
X0178000Y0166000D01*
X0026000Y0203000D02*
X0026000Y0209000D01*
X0016000Y0209000D02*
X0016000Y0203000D01*
D12*
X0019975Y0176000D02*
X0027025Y0176000D01*
X0027025Y0156000D02*
X0019975Y0156000D01*
X0116000Y0037025D02*
X0116000Y0029975D01*
X0136000Y0029975D02*
X0136000Y0037025D01*
D13*
X0138600Y0035200D02*
X0136000Y0033500D01*
X0138600Y0035200D02*
X0138600Y0070400D01*
X0136000Y0071000D01*
X0138600Y0073600D01*
X0138600Y0115200D01*
X0136000Y0116000D01*
X0138600Y0118400D01*
X0138600Y0156800D01*
X0136000Y0161000D01*
X0138600Y0163200D01*
X0138600Y0204800D01*
X0136000Y0206000D01*
X0126000Y0206000D02*
X0125800Y0204800D01*
X0125800Y0163200D01*
X0126000Y0161000D01*
X0125800Y0160000D01*
X0125800Y0118400D01*
X0126000Y0116000D01*
X0125800Y0115200D01*
X0125800Y0073600D01*
X0126000Y0071000D01*
X0125800Y0070400D01*
X0125800Y0067200D01*
X0116200Y0057600D01*
X0116200Y0041600D01*
X0026600Y0041600D01*
X0026000Y0041000D01*
X0026600Y0041600D02*
X0026600Y0051200D01*
X0026000Y0051000D01*
X0026600Y0051200D02*
X0026600Y0060800D01*
X0026000Y0061000D01*
X0026600Y0060800D02*
X0026600Y0070400D01*
X0026000Y0071000D01*
X0026600Y0073600D01*
X0026600Y0080000D01*
X0026000Y0081000D01*
X0026600Y0083200D01*
X0026600Y0089600D01*
X0026000Y0091000D01*
X0026600Y0092800D01*
X0026600Y0099200D01*
X0026000Y0101000D01*
X0026600Y0102400D01*
X0026600Y0108800D01*
X0026000Y0111000D01*
X0023400Y0112000D01*
X0023400Y0153600D01*
X0023500Y0156000D01*
X0023400Y0176000D02*
X0023500Y0176000D01*
X0023400Y0176000D02*
X0023400Y0204800D01*
X0026000Y0206000D01*
X0026600Y0208000D01*
X0074600Y0208000D01*
X0076000Y0206000D01*
X0077800Y0204800D01*
X0077800Y0182400D01*
X0076000Y0181000D01*
X0077800Y0179200D01*
X0077800Y0163200D01*
X0076000Y0161000D01*
X0077800Y0160000D01*
X0077800Y0131200D01*
X0076000Y0131000D01*
X0086000Y0131000D02*
X0087400Y0128000D01*
X0097000Y0118400D01*
X0116200Y0118400D01*
X0116000Y0116000D01*
X0116200Y0115200D01*
X0116200Y0073600D01*
X0116000Y0071000D01*
X0116200Y0041600D02*
X0116200Y0035200D01*
X0116000Y0033500D01*
X0181000Y0116000D02*
X0180200Y0118400D01*
X0180200Y0124800D01*
X0181000Y0126000D01*
X0180200Y0128000D01*
X0180200Y0134400D01*
X0181000Y0136000D01*
X0183400Y0137600D01*
X0183400Y0144000D01*
X0181000Y0146000D01*
X0180200Y0147200D01*
X0180200Y0153600D01*
X0181000Y0156000D01*
X0180200Y0156800D01*
X0138600Y0156800D01*
X0138600Y0160000D01*
X0136000Y0161000D01*
X0116200Y0163200D02*
X0116000Y0161000D01*
X0116200Y0163200D02*
X0087400Y0163200D01*
X0086000Y0161000D01*
X0087400Y0160000D01*
X0087400Y0131200D01*
X0086000Y0131000D01*
X0087400Y0163200D02*
X0087400Y0179200D01*
X0086000Y0181000D01*
X0087400Y0182400D01*
X0087400Y0204800D01*
X0086000Y0206000D01*
X0087400Y0208000D01*
X0116200Y0208000D01*
X0116000Y0206000D01*
X0181000Y0166000D02*
X0183400Y0163200D01*
X0183400Y0156800D01*
X0181000Y0156000D01*
X0026000Y0206000D02*
X0023400Y0208000D01*
X0017000Y0208000D01*
X0016000Y0206000D01*
M02*
