G75*
%MOIN*%
%OFA0B0*%
%FSLAX25Y25*%
%IPPOS*%
%LPD*%
%AMOC8*
5,1,8,0,0,1.08239X$1,22.5*
%
%ADD10C,0.06000*%
%ADD11C,0.07050*%
D10*
X0023000Y0041000D02*
X0029000Y0041000D01*
X0029000Y0051000D02*
X0023000Y0051000D01*
X0023000Y0061000D02*
X0029000Y0061000D01*
X0029000Y0071000D02*
X0023000Y0071000D01*
X0023000Y0081000D02*
X0029000Y0081000D01*
X0029000Y0091000D02*
X0023000Y0091000D01*
X0023000Y0101000D02*
X0029000Y0101000D01*
X0029000Y0111000D02*
X0023000Y0111000D01*
X0076000Y0128000D02*
X0076000Y0134000D01*
X0086000Y0134000D02*
X0086000Y0128000D01*
X0086000Y0158000D02*
X0086000Y0164000D01*
X0076000Y0164000D02*
X0076000Y0158000D01*
X0076000Y0178000D02*
X0076000Y0184000D01*
X0086000Y0184000D02*
X0086000Y0178000D01*
X0086000Y0203000D02*
X0086000Y0209000D01*
X0076000Y0209000D02*
X0076000Y0203000D01*
X0116000Y0203000D02*
X0116000Y0209000D01*
X0126000Y0209000D02*
X0126000Y0203000D01*
X0136000Y0203000D02*
X0136000Y0209000D01*
X0136000Y0164000D02*
X0136000Y0158000D01*
X0126000Y0158000D02*
X0126000Y0164000D01*
X0116000Y0164000D02*
X0116000Y0158000D01*
X0116000Y0119000D02*
X0116000Y0113000D01*
X0126000Y0113000D02*
X0126000Y0119000D01*
X0136000Y0119000D02*
X0136000Y0113000D01*
X0136000Y0074000D02*
X0136000Y0068000D01*
X0126000Y0068000D02*
X0126000Y0074000D01*
X0116000Y0074000D02*
X0116000Y0068000D01*
X0178000Y0116000D02*
X0184000Y0116000D01*
X0184000Y0126000D02*
X0178000Y0126000D01*
X0178000Y0136000D02*
X0184000Y0136000D01*
X0184000Y0146000D02*
X0178000Y0146000D01*
X0178000Y0156000D02*
X0184000Y0156000D01*
X0184000Y0166000D02*
X0178000Y0166000D01*
X0026000Y0203000D02*
X0026000Y0209000D01*
X0016000Y0209000D02*
X0016000Y0203000D01*
D11*
X0019975Y0176000D02*
X0027025Y0176000D01*
X0027025Y0156000D02*
X0019975Y0156000D01*
X0116000Y0037025D02*
X0116000Y0029975D01*
X0136000Y0029975D02*
X0136000Y0037025D01*
M02*
