G75*
%MOIN*%
%OFA0B0*%
%FSLAX25Y25*%
%IPPOS*%
%LPD*%
%AMOC8*
5,1,8,0,0,1.08239X$1,22.5*
%
%ADD10C,0.00000*%
%ADD11C,0.00600*%
%ADD12C,0.00500*%
D10*
X0001000Y0001000D02*
X0001000Y0285961D01*
X0199701Y0285961D01*
X0199701Y0001000D01*
X0001000Y0001000D01*
D11*
X0023500Y0026000D02*
X0021000Y0028500D01*
X0021000Y0033500D01*
X0023500Y0036000D01*
X0021000Y0038500D01*
X0021000Y0043500D01*
X0023500Y0046000D01*
X0028500Y0046000D01*
X0031000Y0043500D01*
X0031000Y0038500D01*
X0028500Y0036000D01*
X0031000Y0033500D01*
X0031000Y0028500D01*
X0028500Y0026000D01*
X0023500Y0026000D01*
X0023500Y0036000D02*
X0028500Y0036000D01*
X0028500Y0046000D02*
X0031000Y0048500D01*
X0031000Y0053500D01*
X0028500Y0056000D01*
X0031000Y0058500D01*
X0031000Y0063500D01*
X0028500Y0066000D01*
X0031000Y0068500D01*
X0031000Y0073500D01*
X0028500Y0076000D01*
X0023500Y0076000D01*
X0021000Y0073500D01*
X0021000Y0068500D01*
X0023500Y0066000D01*
X0028500Y0066000D01*
X0023500Y0066000D02*
X0021000Y0063500D01*
X0021000Y0058500D01*
X0023500Y0056000D01*
X0028500Y0056000D01*
X0023500Y0056000D02*
X0021000Y0053500D01*
X0021000Y0048500D01*
X0023500Y0046000D01*
X0023500Y0076000D02*
X0021000Y0078500D01*
X0021000Y0083500D01*
X0023500Y0086000D01*
X0021000Y0088500D01*
X0021000Y0093500D01*
X0023500Y0096000D01*
X0021000Y0098500D01*
X0021000Y0103500D01*
X0023500Y0106000D01*
X0028500Y0106000D01*
X0031000Y0103500D01*
X0031000Y0098500D01*
X0028500Y0096000D01*
X0031000Y0093500D01*
X0031000Y0088500D01*
X0028500Y0086000D01*
X0031000Y0083500D01*
X0031000Y0078500D01*
X0028500Y0076000D01*
X0028500Y0086000D02*
X0023500Y0086000D01*
X0023500Y0096000D02*
X0028500Y0096000D01*
X0016500Y0151000D02*
X0007000Y0151000D01*
X0007000Y0191000D01*
X0016500Y0191000D01*
X0016500Y0184500D01*
X0016500Y0191000D02*
X0042500Y0191000D01*
X0043500Y0191000D01*
X0043500Y0151000D01*
X0042500Y0151000D01*
X0016500Y0151000D01*
X0016500Y0157500D01*
X0016500Y0164500D02*
X0016500Y0177500D01*
X0035200Y0181000D02*
X0035202Y0181089D01*
X0035208Y0181178D01*
X0035218Y0181267D01*
X0035232Y0181355D01*
X0035249Y0181442D01*
X0035271Y0181528D01*
X0035297Y0181614D01*
X0035326Y0181698D01*
X0035359Y0181781D01*
X0035395Y0181862D01*
X0035436Y0181942D01*
X0035479Y0182019D01*
X0035526Y0182095D01*
X0035577Y0182168D01*
X0035630Y0182239D01*
X0035687Y0182308D01*
X0035747Y0182374D01*
X0035810Y0182438D01*
X0035875Y0182498D01*
X0035943Y0182556D01*
X0036014Y0182610D01*
X0036087Y0182661D01*
X0036162Y0182709D01*
X0036239Y0182754D01*
X0036318Y0182795D01*
X0036399Y0182832D01*
X0036481Y0182866D01*
X0036565Y0182897D01*
X0036650Y0182923D01*
X0036736Y0182946D01*
X0036823Y0182964D01*
X0036911Y0182979D01*
X0037000Y0182990D01*
X0037089Y0182997D01*
X0037178Y0183000D01*
X0037267Y0182999D01*
X0037356Y0182994D01*
X0037444Y0182985D01*
X0037533Y0182972D01*
X0037620Y0182955D01*
X0037707Y0182935D01*
X0037793Y0182910D01*
X0037877Y0182882D01*
X0037960Y0182850D01*
X0038042Y0182814D01*
X0038122Y0182775D01*
X0038200Y0182732D01*
X0038276Y0182686D01*
X0038350Y0182636D01*
X0038422Y0182583D01*
X0038491Y0182527D01*
X0038558Y0182468D01*
X0038622Y0182406D01*
X0038683Y0182342D01*
X0038742Y0182274D01*
X0038797Y0182204D01*
X0038849Y0182132D01*
X0038898Y0182057D01*
X0038943Y0181981D01*
X0038985Y0181902D01*
X0039023Y0181822D01*
X0039058Y0181740D01*
X0039089Y0181656D01*
X0039117Y0181571D01*
X0039140Y0181485D01*
X0039160Y0181398D01*
X0039176Y0181311D01*
X0039188Y0181222D01*
X0039196Y0181134D01*
X0039200Y0181045D01*
X0039200Y0180955D01*
X0039196Y0180866D01*
X0039188Y0180778D01*
X0039176Y0180689D01*
X0039160Y0180602D01*
X0039140Y0180515D01*
X0039117Y0180429D01*
X0039089Y0180344D01*
X0039058Y0180260D01*
X0039023Y0180178D01*
X0038985Y0180098D01*
X0038943Y0180019D01*
X0038898Y0179943D01*
X0038849Y0179868D01*
X0038797Y0179796D01*
X0038742Y0179726D01*
X0038683Y0179658D01*
X0038622Y0179594D01*
X0038558Y0179532D01*
X0038491Y0179473D01*
X0038422Y0179417D01*
X0038350Y0179364D01*
X0038276Y0179314D01*
X0038200Y0179268D01*
X0038122Y0179225D01*
X0038042Y0179186D01*
X0037960Y0179150D01*
X0037877Y0179118D01*
X0037793Y0179090D01*
X0037707Y0179065D01*
X0037620Y0179045D01*
X0037533Y0179028D01*
X0037444Y0179015D01*
X0037356Y0179006D01*
X0037267Y0179001D01*
X0037178Y0179000D01*
X0037089Y0179003D01*
X0037000Y0179010D01*
X0036911Y0179021D01*
X0036823Y0179036D01*
X0036736Y0179054D01*
X0036650Y0179077D01*
X0036565Y0179103D01*
X0036481Y0179134D01*
X0036399Y0179168D01*
X0036318Y0179205D01*
X0036239Y0179246D01*
X0036162Y0179291D01*
X0036087Y0179339D01*
X0036014Y0179390D01*
X0035943Y0179444D01*
X0035875Y0179502D01*
X0035810Y0179562D01*
X0035747Y0179626D01*
X0035687Y0179692D01*
X0035630Y0179761D01*
X0035577Y0179832D01*
X0035526Y0179905D01*
X0035479Y0179981D01*
X0035436Y0180058D01*
X0035395Y0180138D01*
X0035359Y0180219D01*
X0035326Y0180302D01*
X0035297Y0180386D01*
X0035271Y0180472D01*
X0035249Y0180558D01*
X0035232Y0180645D01*
X0035218Y0180733D01*
X0035208Y0180822D01*
X0035202Y0180911D01*
X0035200Y0181000D01*
X0042500Y0191000D02*
X0042500Y0151000D01*
X0035200Y0161000D02*
X0035202Y0161089D01*
X0035208Y0161178D01*
X0035218Y0161267D01*
X0035232Y0161355D01*
X0035249Y0161442D01*
X0035271Y0161528D01*
X0035297Y0161614D01*
X0035326Y0161698D01*
X0035359Y0161781D01*
X0035395Y0161862D01*
X0035436Y0161942D01*
X0035479Y0162019D01*
X0035526Y0162095D01*
X0035577Y0162168D01*
X0035630Y0162239D01*
X0035687Y0162308D01*
X0035747Y0162374D01*
X0035810Y0162438D01*
X0035875Y0162498D01*
X0035943Y0162556D01*
X0036014Y0162610D01*
X0036087Y0162661D01*
X0036162Y0162709D01*
X0036239Y0162754D01*
X0036318Y0162795D01*
X0036399Y0162832D01*
X0036481Y0162866D01*
X0036565Y0162897D01*
X0036650Y0162923D01*
X0036736Y0162946D01*
X0036823Y0162964D01*
X0036911Y0162979D01*
X0037000Y0162990D01*
X0037089Y0162997D01*
X0037178Y0163000D01*
X0037267Y0162999D01*
X0037356Y0162994D01*
X0037444Y0162985D01*
X0037533Y0162972D01*
X0037620Y0162955D01*
X0037707Y0162935D01*
X0037793Y0162910D01*
X0037877Y0162882D01*
X0037960Y0162850D01*
X0038042Y0162814D01*
X0038122Y0162775D01*
X0038200Y0162732D01*
X0038276Y0162686D01*
X0038350Y0162636D01*
X0038422Y0162583D01*
X0038491Y0162527D01*
X0038558Y0162468D01*
X0038622Y0162406D01*
X0038683Y0162342D01*
X0038742Y0162274D01*
X0038797Y0162204D01*
X0038849Y0162132D01*
X0038898Y0162057D01*
X0038943Y0161981D01*
X0038985Y0161902D01*
X0039023Y0161822D01*
X0039058Y0161740D01*
X0039089Y0161656D01*
X0039117Y0161571D01*
X0039140Y0161485D01*
X0039160Y0161398D01*
X0039176Y0161311D01*
X0039188Y0161222D01*
X0039196Y0161134D01*
X0039200Y0161045D01*
X0039200Y0160955D01*
X0039196Y0160866D01*
X0039188Y0160778D01*
X0039176Y0160689D01*
X0039160Y0160602D01*
X0039140Y0160515D01*
X0039117Y0160429D01*
X0039089Y0160344D01*
X0039058Y0160260D01*
X0039023Y0160178D01*
X0038985Y0160098D01*
X0038943Y0160019D01*
X0038898Y0159943D01*
X0038849Y0159868D01*
X0038797Y0159796D01*
X0038742Y0159726D01*
X0038683Y0159658D01*
X0038622Y0159594D01*
X0038558Y0159532D01*
X0038491Y0159473D01*
X0038422Y0159417D01*
X0038350Y0159364D01*
X0038276Y0159314D01*
X0038200Y0159268D01*
X0038122Y0159225D01*
X0038042Y0159186D01*
X0037960Y0159150D01*
X0037877Y0159118D01*
X0037793Y0159090D01*
X0037707Y0159065D01*
X0037620Y0159045D01*
X0037533Y0159028D01*
X0037444Y0159015D01*
X0037356Y0159006D01*
X0037267Y0159001D01*
X0037178Y0159000D01*
X0037089Y0159003D01*
X0037000Y0159010D01*
X0036911Y0159021D01*
X0036823Y0159036D01*
X0036736Y0159054D01*
X0036650Y0159077D01*
X0036565Y0159103D01*
X0036481Y0159134D01*
X0036399Y0159168D01*
X0036318Y0159205D01*
X0036239Y0159246D01*
X0036162Y0159291D01*
X0036087Y0159339D01*
X0036014Y0159390D01*
X0035943Y0159444D01*
X0035875Y0159502D01*
X0035810Y0159562D01*
X0035747Y0159626D01*
X0035687Y0159692D01*
X0035630Y0159761D01*
X0035577Y0159832D01*
X0035526Y0159905D01*
X0035479Y0159981D01*
X0035436Y0160058D01*
X0035395Y0160138D01*
X0035359Y0160219D01*
X0035326Y0160302D01*
X0035297Y0160386D01*
X0035271Y0160472D01*
X0035249Y0160558D01*
X0035232Y0160645D01*
X0035218Y0160733D01*
X0035208Y0160822D01*
X0035202Y0160911D01*
X0035200Y0161000D01*
X0076000Y0143500D02*
X0076000Y0138500D01*
X0078500Y0136000D01*
X0083500Y0136000D01*
X0086000Y0138500D01*
X0086000Y0143500D01*
X0083500Y0146000D01*
X0078500Y0146000D01*
X0076000Y0143500D01*
X0078500Y0136000D02*
X0076000Y0133500D01*
X0076000Y0128500D01*
X0078500Y0126000D01*
X0083500Y0126000D01*
X0086000Y0128500D01*
X0086000Y0133500D01*
X0083500Y0136000D01*
X0111000Y0133500D02*
X0113500Y0131000D01*
X0118500Y0131000D01*
X0121000Y0133500D01*
X0123500Y0131000D01*
X0128500Y0131000D01*
X0131000Y0133500D01*
X0133500Y0131000D01*
X0138500Y0131000D01*
X0141000Y0133500D01*
X0141000Y0138500D01*
X0138500Y0141000D01*
X0133500Y0141000D01*
X0131000Y0138500D01*
X0131000Y0133500D01*
X0131000Y0138500D02*
X0128500Y0141000D01*
X0123500Y0141000D01*
X0121000Y0138500D01*
X0121000Y0133500D01*
X0121000Y0138500D02*
X0118500Y0141000D01*
X0113500Y0141000D01*
X0111000Y0138500D01*
X0111000Y0133500D01*
X0083500Y0091000D02*
X0086000Y0088500D01*
X0086000Y0083500D01*
X0083500Y0081000D01*
X0086000Y0078500D01*
X0086000Y0073500D01*
X0083500Y0071000D01*
X0078500Y0071000D01*
X0076000Y0073500D01*
X0076000Y0078500D01*
X0078500Y0081000D01*
X0076000Y0083500D01*
X0076000Y0088500D01*
X0078500Y0091000D01*
X0083500Y0091000D01*
X0083500Y0081000D02*
X0078500Y0081000D01*
X0111000Y0078500D02*
X0111000Y0073500D01*
X0113500Y0071000D01*
X0118500Y0071000D01*
X0121000Y0073500D01*
X0123500Y0071000D01*
X0128500Y0071000D01*
X0131000Y0073500D01*
X0133500Y0071000D01*
X0138500Y0071000D01*
X0141000Y0073500D01*
X0141000Y0078500D01*
X0138500Y0081000D01*
X0133500Y0081000D01*
X0131000Y0078500D01*
X0131000Y0073500D01*
X0131000Y0078500D02*
X0128500Y0081000D01*
X0123500Y0081000D01*
X0121000Y0078500D01*
X0121000Y0073500D01*
X0121000Y0078500D02*
X0118500Y0081000D01*
X0113500Y0081000D01*
X0111000Y0078500D01*
X0111000Y0045000D02*
X0151000Y0045000D01*
X0151000Y0035500D01*
X0144500Y0035500D01*
X0137500Y0035500D02*
X0124500Y0035500D01*
X0117500Y0035500D02*
X0111000Y0035500D01*
X0111000Y0009500D01*
X0111000Y0008500D01*
X0151000Y0008500D01*
X0151000Y0009500D01*
X0151000Y0035500D01*
X0139000Y0014800D02*
X0139002Y0014889D01*
X0139008Y0014978D01*
X0139018Y0015067D01*
X0139032Y0015155D01*
X0139049Y0015242D01*
X0139071Y0015328D01*
X0139097Y0015414D01*
X0139126Y0015498D01*
X0139159Y0015581D01*
X0139195Y0015662D01*
X0139236Y0015742D01*
X0139279Y0015819D01*
X0139326Y0015895D01*
X0139377Y0015968D01*
X0139430Y0016039D01*
X0139487Y0016108D01*
X0139547Y0016174D01*
X0139610Y0016238D01*
X0139675Y0016298D01*
X0139743Y0016356D01*
X0139814Y0016410D01*
X0139887Y0016461D01*
X0139962Y0016509D01*
X0140039Y0016554D01*
X0140118Y0016595D01*
X0140199Y0016632D01*
X0140281Y0016666D01*
X0140365Y0016697D01*
X0140450Y0016723D01*
X0140536Y0016746D01*
X0140623Y0016764D01*
X0140711Y0016779D01*
X0140800Y0016790D01*
X0140889Y0016797D01*
X0140978Y0016800D01*
X0141067Y0016799D01*
X0141156Y0016794D01*
X0141244Y0016785D01*
X0141333Y0016772D01*
X0141420Y0016755D01*
X0141507Y0016735D01*
X0141593Y0016710D01*
X0141677Y0016682D01*
X0141760Y0016650D01*
X0141842Y0016614D01*
X0141922Y0016575D01*
X0142000Y0016532D01*
X0142076Y0016486D01*
X0142150Y0016436D01*
X0142222Y0016383D01*
X0142291Y0016327D01*
X0142358Y0016268D01*
X0142422Y0016206D01*
X0142483Y0016142D01*
X0142542Y0016074D01*
X0142597Y0016004D01*
X0142649Y0015932D01*
X0142698Y0015857D01*
X0142743Y0015781D01*
X0142785Y0015702D01*
X0142823Y0015622D01*
X0142858Y0015540D01*
X0142889Y0015456D01*
X0142917Y0015371D01*
X0142940Y0015285D01*
X0142960Y0015198D01*
X0142976Y0015111D01*
X0142988Y0015022D01*
X0142996Y0014934D01*
X0143000Y0014845D01*
X0143000Y0014755D01*
X0142996Y0014666D01*
X0142988Y0014578D01*
X0142976Y0014489D01*
X0142960Y0014402D01*
X0142940Y0014315D01*
X0142917Y0014229D01*
X0142889Y0014144D01*
X0142858Y0014060D01*
X0142823Y0013978D01*
X0142785Y0013898D01*
X0142743Y0013819D01*
X0142698Y0013743D01*
X0142649Y0013668D01*
X0142597Y0013596D01*
X0142542Y0013526D01*
X0142483Y0013458D01*
X0142422Y0013394D01*
X0142358Y0013332D01*
X0142291Y0013273D01*
X0142222Y0013217D01*
X0142150Y0013164D01*
X0142076Y0013114D01*
X0142000Y0013068D01*
X0141922Y0013025D01*
X0141842Y0012986D01*
X0141760Y0012950D01*
X0141677Y0012918D01*
X0141593Y0012890D01*
X0141507Y0012865D01*
X0141420Y0012845D01*
X0141333Y0012828D01*
X0141244Y0012815D01*
X0141156Y0012806D01*
X0141067Y0012801D01*
X0140978Y0012800D01*
X0140889Y0012803D01*
X0140800Y0012810D01*
X0140711Y0012821D01*
X0140623Y0012836D01*
X0140536Y0012854D01*
X0140450Y0012877D01*
X0140365Y0012903D01*
X0140281Y0012934D01*
X0140199Y0012968D01*
X0140118Y0013005D01*
X0140039Y0013046D01*
X0139962Y0013091D01*
X0139887Y0013139D01*
X0139814Y0013190D01*
X0139743Y0013244D01*
X0139675Y0013302D01*
X0139610Y0013362D01*
X0139547Y0013426D01*
X0139487Y0013492D01*
X0139430Y0013561D01*
X0139377Y0013632D01*
X0139326Y0013705D01*
X0139279Y0013781D01*
X0139236Y0013858D01*
X0139195Y0013938D01*
X0139159Y0014019D01*
X0139126Y0014102D01*
X0139097Y0014186D01*
X0139071Y0014272D01*
X0139049Y0014358D01*
X0139032Y0014445D01*
X0139018Y0014533D01*
X0139008Y0014622D01*
X0139002Y0014711D01*
X0139000Y0014800D01*
X0151000Y0009500D02*
X0111000Y0009500D01*
X0119000Y0014800D02*
X0119002Y0014889D01*
X0119008Y0014978D01*
X0119018Y0015067D01*
X0119032Y0015155D01*
X0119049Y0015242D01*
X0119071Y0015328D01*
X0119097Y0015414D01*
X0119126Y0015498D01*
X0119159Y0015581D01*
X0119195Y0015662D01*
X0119236Y0015742D01*
X0119279Y0015819D01*
X0119326Y0015895D01*
X0119377Y0015968D01*
X0119430Y0016039D01*
X0119487Y0016108D01*
X0119547Y0016174D01*
X0119610Y0016238D01*
X0119675Y0016298D01*
X0119743Y0016356D01*
X0119814Y0016410D01*
X0119887Y0016461D01*
X0119962Y0016509D01*
X0120039Y0016554D01*
X0120118Y0016595D01*
X0120199Y0016632D01*
X0120281Y0016666D01*
X0120365Y0016697D01*
X0120450Y0016723D01*
X0120536Y0016746D01*
X0120623Y0016764D01*
X0120711Y0016779D01*
X0120800Y0016790D01*
X0120889Y0016797D01*
X0120978Y0016800D01*
X0121067Y0016799D01*
X0121156Y0016794D01*
X0121244Y0016785D01*
X0121333Y0016772D01*
X0121420Y0016755D01*
X0121507Y0016735D01*
X0121593Y0016710D01*
X0121677Y0016682D01*
X0121760Y0016650D01*
X0121842Y0016614D01*
X0121922Y0016575D01*
X0122000Y0016532D01*
X0122076Y0016486D01*
X0122150Y0016436D01*
X0122222Y0016383D01*
X0122291Y0016327D01*
X0122358Y0016268D01*
X0122422Y0016206D01*
X0122483Y0016142D01*
X0122542Y0016074D01*
X0122597Y0016004D01*
X0122649Y0015932D01*
X0122698Y0015857D01*
X0122743Y0015781D01*
X0122785Y0015702D01*
X0122823Y0015622D01*
X0122858Y0015540D01*
X0122889Y0015456D01*
X0122917Y0015371D01*
X0122940Y0015285D01*
X0122960Y0015198D01*
X0122976Y0015111D01*
X0122988Y0015022D01*
X0122996Y0014934D01*
X0123000Y0014845D01*
X0123000Y0014755D01*
X0122996Y0014666D01*
X0122988Y0014578D01*
X0122976Y0014489D01*
X0122960Y0014402D01*
X0122940Y0014315D01*
X0122917Y0014229D01*
X0122889Y0014144D01*
X0122858Y0014060D01*
X0122823Y0013978D01*
X0122785Y0013898D01*
X0122743Y0013819D01*
X0122698Y0013743D01*
X0122649Y0013668D01*
X0122597Y0013596D01*
X0122542Y0013526D01*
X0122483Y0013458D01*
X0122422Y0013394D01*
X0122358Y0013332D01*
X0122291Y0013273D01*
X0122222Y0013217D01*
X0122150Y0013164D01*
X0122076Y0013114D01*
X0122000Y0013068D01*
X0121922Y0013025D01*
X0121842Y0012986D01*
X0121760Y0012950D01*
X0121677Y0012918D01*
X0121593Y0012890D01*
X0121507Y0012865D01*
X0121420Y0012845D01*
X0121333Y0012828D01*
X0121244Y0012815D01*
X0121156Y0012806D01*
X0121067Y0012801D01*
X0120978Y0012800D01*
X0120889Y0012803D01*
X0120800Y0012810D01*
X0120711Y0012821D01*
X0120623Y0012836D01*
X0120536Y0012854D01*
X0120450Y0012877D01*
X0120365Y0012903D01*
X0120281Y0012934D01*
X0120199Y0012968D01*
X0120118Y0013005D01*
X0120039Y0013046D01*
X0119962Y0013091D01*
X0119887Y0013139D01*
X0119814Y0013190D01*
X0119743Y0013244D01*
X0119675Y0013302D01*
X0119610Y0013362D01*
X0119547Y0013426D01*
X0119487Y0013492D01*
X0119430Y0013561D01*
X0119377Y0013632D01*
X0119326Y0013705D01*
X0119279Y0013781D01*
X0119236Y0013858D01*
X0119195Y0013938D01*
X0119159Y0014019D01*
X0119126Y0014102D01*
X0119097Y0014186D01*
X0119071Y0014272D01*
X0119049Y0014358D01*
X0119032Y0014445D01*
X0119018Y0014533D01*
X0119008Y0014622D01*
X0119002Y0014711D01*
X0119000Y0014800D01*
X0111000Y0035500D02*
X0111000Y0045000D01*
X0178500Y0151000D02*
X0176000Y0153500D01*
X0176000Y0158500D01*
X0178500Y0161000D01*
X0176000Y0163500D01*
X0176000Y0168500D01*
X0178500Y0171000D01*
X0183500Y0171000D01*
X0186000Y0168500D01*
X0186000Y0163500D01*
X0183500Y0161000D01*
X0186000Y0158500D01*
X0186000Y0153500D01*
X0183500Y0151000D01*
X0178500Y0151000D01*
X0178500Y0161000D02*
X0183500Y0161000D01*
X0183500Y0171000D02*
X0186000Y0173500D01*
X0186000Y0178500D01*
X0183500Y0181000D01*
X0186000Y0183500D01*
X0186000Y0188500D01*
X0183500Y0191000D01*
X0186000Y0193500D01*
X0186000Y0198500D01*
X0183500Y0201000D01*
X0186000Y0203500D01*
X0186000Y0208500D01*
X0183500Y0211000D01*
X0178500Y0211000D01*
X0176000Y0208500D01*
X0176000Y0203500D01*
X0178500Y0201000D01*
X0183500Y0201000D01*
X0178500Y0201000D02*
X0176000Y0198500D01*
X0176000Y0193500D01*
X0178500Y0191000D01*
X0183500Y0191000D01*
X0178500Y0191000D02*
X0176000Y0188500D01*
X0176000Y0183500D01*
X0178500Y0181000D01*
X0183500Y0181000D01*
X0178500Y0181000D02*
X0176000Y0178500D01*
X0176000Y0173500D01*
X0178500Y0171000D01*
X0141000Y0183500D02*
X0138500Y0181000D01*
X0133500Y0181000D01*
X0131000Y0183500D01*
X0128500Y0181000D01*
X0123500Y0181000D01*
X0121000Y0183500D01*
X0118500Y0181000D01*
X0113500Y0181000D01*
X0111000Y0183500D01*
X0111000Y0188500D01*
X0113500Y0191000D01*
X0118500Y0191000D01*
X0121000Y0188500D01*
X0123500Y0191000D01*
X0128500Y0191000D01*
X0131000Y0188500D01*
X0133500Y0191000D01*
X0138500Y0191000D01*
X0141000Y0188500D01*
X0141000Y0183500D01*
X0131000Y0183500D02*
X0131000Y0188500D01*
X0121000Y0188500D02*
X0121000Y0183500D01*
X0086000Y0183500D02*
X0086000Y0178500D01*
X0083500Y0176000D01*
X0078500Y0176000D01*
X0076000Y0178500D01*
X0076000Y0183500D01*
X0078500Y0186000D01*
X0076000Y0188500D01*
X0076000Y0193500D01*
X0078500Y0196000D01*
X0083500Y0196000D01*
X0086000Y0193500D01*
X0086000Y0188500D01*
X0083500Y0186000D01*
X0086000Y0183500D01*
X0083500Y0186000D02*
X0078500Y0186000D01*
X0078500Y0236000D02*
X0076000Y0238500D01*
X0076000Y0243500D01*
X0078500Y0246000D01*
X0076000Y0248500D01*
X0076000Y0253500D01*
X0078500Y0256000D01*
X0083500Y0256000D01*
X0086000Y0253500D01*
X0086000Y0248500D01*
X0083500Y0246000D01*
X0086000Y0243500D01*
X0086000Y0238500D01*
X0083500Y0236000D01*
X0078500Y0236000D01*
X0078500Y0246000D02*
X0083500Y0246000D01*
X0111000Y0243500D02*
X0113500Y0241000D01*
X0118500Y0241000D01*
X0121000Y0243500D01*
X0123500Y0241000D01*
X0128500Y0241000D01*
X0131000Y0243500D01*
X0133500Y0241000D01*
X0138500Y0241000D01*
X0141000Y0243500D01*
X0141000Y0248500D01*
X0138500Y0251000D01*
X0133500Y0251000D01*
X0131000Y0248500D01*
X0131000Y0243500D01*
X0131000Y0248500D02*
X0128500Y0251000D01*
X0123500Y0251000D01*
X0121000Y0248500D01*
X0121000Y0243500D01*
X0121000Y0248500D02*
X0118500Y0251000D01*
X0113500Y0251000D01*
X0111000Y0248500D01*
X0111000Y0243500D01*
D12*
X0111701Y0253450D02*
X0112451Y0253450D01*
X0113202Y0254201D01*
X0113202Y0257954D01*
X0112451Y0257954D02*
X0113953Y0257954D01*
X0115554Y0257954D02*
X0115554Y0253450D01*
X0115554Y0254951D02*
X0117806Y0254951D01*
X0118556Y0255702D01*
X0118556Y0257203D01*
X0117806Y0257954D01*
X0115554Y0257954D01*
X0120158Y0257203D02*
X0120908Y0257954D01*
X0122410Y0257954D01*
X0123160Y0257203D01*
X0123160Y0256453D01*
X0122410Y0255702D01*
X0123160Y0254951D01*
X0123160Y0254201D01*
X0122410Y0253450D01*
X0120908Y0253450D01*
X0120158Y0254201D01*
X0121659Y0255702D02*
X0122410Y0255702D01*
X0111701Y0253450D02*
X0110950Y0254201D01*
X0073550Y0252764D02*
X0073550Y0249762D01*
X0073550Y0251263D02*
X0069046Y0251263D01*
X0070547Y0249762D01*
X0073550Y0248160D02*
X0073550Y0245158D01*
X0073550Y0246659D02*
X0069046Y0246659D01*
X0070547Y0245158D01*
X0069797Y0243556D02*
X0071298Y0243556D01*
X0072049Y0242806D01*
X0072049Y0240554D01*
X0073550Y0240554D02*
X0069046Y0240554D01*
X0069046Y0242806D01*
X0069797Y0243556D01*
X0069046Y0238953D02*
X0069046Y0237451D01*
X0069046Y0238202D02*
X0072799Y0238202D01*
X0073550Y0237451D01*
X0073550Y0236701D01*
X0072799Y0235950D01*
X0071298Y0188160D02*
X0071298Y0185158D01*
X0069046Y0187410D01*
X0073550Y0187410D01*
X0071298Y0183556D02*
X0069797Y0183556D01*
X0069046Y0182806D01*
X0069046Y0180554D01*
X0073550Y0180554D01*
X0072049Y0180554D02*
X0072049Y0182806D01*
X0071298Y0183556D01*
X0069046Y0178953D02*
X0069046Y0177451D01*
X0069046Y0178202D02*
X0072799Y0178202D01*
X0073550Y0177451D01*
X0073550Y0176701D01*
X0072799Y0175950D01*
X0072799Y0138160D02*
X0072049Y0138160D01*
X0071298Y0137410D01*
X0071298Y0135158D01*
X0072799Y0135158D01*
X0073550Y0135908D01*
X0073550Y0137410D01*
X0072799Y0138160D01*
X0069797Y0136659D02*
X0071298Y0135158D01*
X0071298Y0133556D02*
X0069797Y0133556D01*
X0069046Y0132806D01*
X0069046Y0130554D01*
X0073550Y0130554D01*
X0072049Y0130554D02*
X0072049Y0132806D01*
X0071298Y0133556D01*
X0069797Y0136659D02*
X0069046Y0138160D01*
X0069046Y0128953D02*
X0069046Y0127451D01*
X0069046Y0128202D02*
X0072799Y0128202D01*
X0073550Y0127451D01*
X0073550Y0126701D01*
X0072799Y0125950D01*
X0072799Y0083160D02*
X0072049Y0083160D01*
X0071298Y0082410D01*
X0071298Y0080908D01*
X0070547Y0080158D01*
X0069797Y0080158D01*
X0069046Y0080908D01*
X0069046Y0082410D01*
X0069797Y0083160D01*
X0070547Y0083160D01*
X0071298Y0082410D01*
X0071298Y0080908D02*
X0072049Y0080158D01*
X0072799Y0080158D01*
X0073550Y0080908D01*
X0073550Y0082410D01*
X0072799Y0083160D01*
X0071298Y0078556D02*
X0072049Y0077806D01*
X0072049Y0075554D01*
X0073550Y0075554D02*
X0069046Y0075554D01*
X0069046Y0077806D01*
X0069797Y0078556D01*
X0071298Y0078556D01*
X0069046Y0073953D02*
X0069046Y0072451D01*
X0069046Y0073202D02*
X0072799Y0073202D01*
X0073550Y0072451D01*
X0073550Y0071701D01*
X0072799Y0070950D01*
X0110950Y0084201D02*
X0111701Y0083450D01*
X0112451Y0083450D01*
X0113202Y0084201D01*
X0113202Y0087954D01*
X0112451Y0087954D02*
X0113953Y0087954D01*
X0115554Y0087954D02*
X0115554Y0083450D01*
X0115554Y0084951D02*
X0117806Y0084951D01*
X0118556Y0085702D01*
X0118556Y0087203D01*
X0117806Y0087954D01*
X0115554Y0087954D01*
X0120158Y0087203D02*
X0120908Y0087954D01*
X0122410Y0087954D01*
X0123160Y0087203D01*
X0123160Y0086453D01*
X0120158Y0083450D01*
X0123160Y0083450D01*
X0137042Y0042754D02*
X0140045Y0038250D01*
X0141646Y0038250D02*
X0144649Y0041253D01*
X0144649Y0042003D01*
X0143898Y0042754D01*
X0142397Y0042754D01*
X0141646Y0042003D01*
X0140045Y0042754D02*
X0137042Y0038250D01*
X0141646Y0038250D02*
X0144649Y0038250D01*
X0127014Y0143450D02*
X0125512Y0143450D01*
X0124762Y0144201D01*
X0127764Y0147203D01*
X0127764Y0144201D01*
X0127014Y0143450D01*
X0124762Y0144201D02*
X0124762Y0147203D01*
X0125512Y0147954D01*
X0127014Y0147954D01*
X0127764Y0147203D01*
X0123160Y0143450D02*
X0120158Y0143450D01*
X0121659Y0143450D02*
X0121659Y0147954D01*
X0120158Y0146453D01*
X0118556Y0147203D02*
X0118556Y0145702D01*
X0117806Y0144951D01*
X0115554Y0144951D01*
X0115554Y0143450D02*
X0115554Y0147954D01*
X0117806Y0147954D01*
X0118556Y0147203D01*
X0113953Y0147954D02*
X0112451Y0147954D01*
X0113202Y0147954D02*
X0113202Y0144201D01*
X0112451Y0143450D01*
X0111701Y0143450D01*
X0110950Y0144201D01*
X0111701Y0193450D02*
X0112451Y0193450D01*
X0113202Y0194201D01*
X0113202Y0197954D01*
X0112451Y0197954D02*
X0113953Y0197954D01*
X0115554Y0197954D02*
X0115554Y0193450D01*
X0115554Y0194951D02*
X0117806Y0194951D01*
X0118556Y0195702D01*
X0118556Y0197203D01*
X0117806Y0197954D01*
X0115554Y0197954D01*
X0120158Y0197203D02*
X0120158Y0196453D01*
X0120908Y0195702D01*
X0123160Y0195702D01*
X0123160Y0197203D02*
X0122410Y0197954D01*
X0120908Y0197954D01*
X0120158Y0197203D01*
X0120158Y0194201D02*
X0120908Y0193450D01*
X0122410Y0193450D01*
X0123160Y0194201D01*
X0123160Y0197203D01*
X0111701Y0193450D02*
X0110950Y0194201D01*
X0169046Y0163160D02*
X0169046Y0160158D01*
X0171298Y0160158D01*
X0170547Y0161659D01*
X0170547Y0162410D01*
X0171298Y0163160D01*
X0172799Y0163160D01*
X0173550Y0162410D01*
X0173550Y0160908D01*
X0172799Y0160158D01*
X0171298Y0158556D02*
X0172049Y0157806D01*
X0172049Y0155554D01*
X0173550Y0155554D02*
X0169046Y0155554D01*
X0169046Y0157806D01*
X0169797Y0158556D01*
X0171298Y0158556D01*
X0169046Y0153953D02*
X0169046Y0152451D01*
X0169046Y0153202D02*
X0172799Y0153202D01*
X0173550Y0152451D01*
X0173550Y0151701D01*
X0172799Y0150950D01*
X0018550Y0035158D02*
X0017799Y0035158D01*
X0014797Y0038160D01*
X0014046Y0038160D01*
X0014046Y0035158D01*
X0014797Y0033556D02*
X0014046Y0032806D01*
X0014046Y0030554D01*
X0018550Y0030554D01*
X0017049Y0030554D02*
X0017049Y0032806D01*
X0016298Y0033556D01*
X0014797Y0033556D01*
X0014046Y0028953D02*
X0014046Y0027451D01*
X0014046Y0028202D02*
X0017799Y0028202D01*
X0018550Y0027451D01*
X0018550Y0026701D01*
X0017799Y0025950D01*
X0013750Y0177042D02*
X0009246Y0180045D01*
X0010747Y0181646D02*
X0009246Y0183147D01*
X0013750Y0183147D01*
X0013750Y0181646D02*
X0013750Y0184649D01*
X0013750Y0180045D02*
X0009246Y0177042D01*
M02*
