G75*
%MOIN*%
%OFA0B0*%
%FSLAX25Y25*%
%IPPOS*%
%LPD*%
%AMOC8*
5,1,8,0,0,1.08239X$1,22.5*
%
%ADD10C,0.06000*%
%ADD11C,0.07050*%
%ADD12C,0.04400*%
D10*
X0113300Y0016300D02*
X0119300Y0016300D01*
X0119300Y0026300D02*
X0113300Y0026300D01*
X0113300Y0036300D02*
X0119300Y0036300D01*
X0119300Y0046300D02*
X0113300Y0046300D01*
X0113300Y0056300D02*
X0119300Y0056300D01*
X0119300Y0066300D02*
X0113300Y0066300D01*
X0113300Y0076300D02*
X0119300Y0076300D01*
X0119300Y0086300D02*
X0113300Y0086300D01*
X0094300Y0106300D02*
X0088300Y0106300D01*
X0088300Y0116300D02*
X0094300Y0116300D01*
X0094300Y0126300D02*
X0088300Y0126300D01*
X0088300Y0146300D02*
X0094300Y0146300D01*
X0094300Y0156300D02*
X0088300Y0156300D01*
X0088300Y0166300D02*
X0094300Y0166300D01*
X0056300Y0129300D02*
X0056300Y0123300D01*
X0046300Y0123300D02*
X0046300Y0129300D01*
X0036300Y0129300D02*
X0036300Y0123300D01*
X0026300Y0123300D02*
X0026300Y0129300D01*
X0019300Y0156300D02*
X0013300Y0156300D01*
X0013300Y0166300D02*
X0019300Y0166300D01*
X0168300Y0166300D02*
X0174300Y0166300D01*
X0174300Y0156300D02*
X0168300Y0156300D01*
X0168300Y0146300D02*
X0174300Y0146300D01*
X0174300Y0126300D02*
X0168300Y0126300D01*
X0168300Y0116300D02*
X0174300Y0116300D01*
X0174300Y0106300D02*
X0168300Y0106300D01*
X0213300Y0101300D02*
X0219300Y0101300D01*
X0219300Y0091300D02*
X0213300Y0091300D01*
X0213300Y0081300D02*
X0219300Y0081300D01*
X0219300Y0071300D02*
X0213300Y0071300D01*
X0213300Y0061300D02*
X0219300Y0061300D01*
X0219300Y0051300D02*
X0213300Y0051300D01*
D11*
X0032325Y0056300D02*
X0025275Y0056300D01*
X0025275Y0076300D02*
X0032325Y0076300D01*
X0156300Y0027325D02*
X0156300Y0020275D01*
X0176300Y0020275D02*
X0176300Y0027325D01*
D12*
X0173700Y0025900D02*
X0176300Y0023800D01*
X0173700Y0025900D02*
X0164100Y0035500D01*
X0119300Y0035500D01*
X0116300Y0036300D01*
X0093700Y0105900D02*
X0091300Y0106300D01*
X0093700Y0105900D02*
X0170500Y0105900D01*
X0171300Y0106300D01*
X0171300Y0116300D02*
X0173700Y0118700D01*
X0176900Y0118700D01*
X0183300Y0125100D01*
X0183300Y0147500D01*
X0173700Y0157100D01*
X0171300Y0156300D01*
X0103300Y0147500D02*
X0103300Y0125100D01*
X0093700Y0115500D01*
X0091300Y0116300D01*
X0091300Y0126300D02*
X0090500Y0128300D01*
X0080900Y0128300D01*
X0080900Y0160300D01*
X0084100Y0163500D01*
X0090500Y0163500D01*
X0091300Y0166300D01*
X0091300Y0156300D02*
X0093700Y0153900D01*
X0096900Y0153900D01*
X0103300Y0147500D01*
X0080900Y0128300D02*
X0058500Y0128300D01*
X0056300Y0126300D01*
X0026500Y0128300D02*
X0026300Y0126300D01*
X0026500Y0128300D02*
X0026500Y0144300D01*
X0016900Y0153900D01*
X0016300Y0156300D01*
M02*
