G75*
%MOIN*%
%OFA0B0*%
%FSLAX25Y25*%
%IPPOS*%
%LPD*%
%AMOC8*
5,1,8,0,0,1.08239X$1,22.5*
%
%ADD10C,0.00600*%
%ADD11C,0.00500*%
D10*
X0001300Y0001300D02*
X0001300Y0191300D01*
X0231300Y0191300D01*
X0231300Y0001300D01*
X0001300Y0001300D01*
X0012300Y0046300D02*
X0012300Y0086300D01*
X0021800Y0086300D01*
X0021800Y0079800D01*
X0021800Y0086300D02*
X0047800Y0086300D01*
X0048800Y0086300D01*
X0048800Y0046300D01*
X0047800Y0046300D01*
X0021800Y0046300D01*
X0021800Y0052800D01*
X0021800Y0046300D02*
X0012300Y0046300D01*
X0021800Y0059800D02*
X0021800Y0072800D01*
X0040500Y0076300D02*
X0040502Y0076389D01*
X0040508Y0076478D01*
X0040518Y0076567D01*
X0040532Y0076655D01*
X0040549Y0076742D01*
X0040571Y0076828D01*
X0040597Y0076914D01*
X0040626Y0076998D01*
X0040659Y0077081D01*
X0040695Y0077162D01*
X0040736Y0077242D01*
X0040779Y0077319D01*
X0040826Y0077395D01*
X0040877Y0077468D01*
X0040930Y0077539D01*
X0040987Y0077608D01*
X0041047Y0077674D01*
X0041110Y0077738D01*
X0041175Y0077798D01*
X0041243Y0077856D01*
X0041314Y0077910D01*
X0041387Y0077961D01*
X0041462Y0078009D01*
X0041539Y0078054D01*
X0041618Y0078095D01*
X0041699Y0078132D01*
X0041781Y0078166D01*
X0041865Y0078197D01*
X0041950Y0078223D01*
X0042036Y0078246D01*
X0042123Y0078264D01*
X0042211Y0078279D01*
X0042300Y0078290D01*
X0042389Y0078297D01*
X0042478Y0078300D01*
X0042567Y0078299D01*
X0042656Y0078294D01*
X0042744Y0078285D01*
X0042833Y0078272D01*
X0042920Y0078255D01*
X0043007Y0078235D01*
X0043093Y0078210D01*
X0043177Y0078182D01*
X0043260Y0078150D01*
X0043342Y0078114D01*
X0043422Y0078075D01*
X0043500Y0078032D01*
X0043576Y0077986D01*
X0043650Y0077936D01*
X0043722Y0077883D01*
X0043791Y0077827D01*
X0043858Y0077768D01*
X0043922Y0077706D01*
X0043983Y0077642D01*
X0044042Y0077574D01*
X0044097Y0077504D01*
X0044149Y0077432D01*
X0044198Y0077357D01*
X0044243Y0077281D01*
X0044285Y0077202D01*
X0044323Y0077122D01*
X0044358Y0077040D01*
X0044389Y0076956D01*
X0044417Y0076871D01*
X0044440Y0076785D01*
X0044460Y0076698D01*
X0044476Y0076611D01*
X0044488Y0076522D01*
X0044496Y0076434D01*
X0044500Y0076345D01*
X0044500Y0076255D01*
X0044496Y0076166D01*
X0044488Y0076078D01*
X0044476Y0075989D01*
X0044460Y0075902D01*
X0044440Y0075815D01*
X0044417Y0075729D01*
X0044389Y0075644D01*
X0044358Y0075560D01*
X0044323Y0075478D01*
X0044285Y0075398D01*
X0044243Y0075319D01*
X0044198Y0075243D01*
X0044149Y0075168D01*
X0044097Y0075096D01*
X0044042Y0075026D01*
X0043983Y0074958D01*
X0043922Y0074894D01*
X0043858Y0074832D01*
X0043791Y0074773D01*
X0043722Y0074717D01*
X0043650Y0074664D01*
X0043576Y0074614D01*
X0043500Y0074568D01*
X0043422Y0074525D01*
X0043342Y0074486D01*
X0043260Y0074450D01*
X0043177Y0074418D01*
X0043093Y0074390D01*
X0043007Y0074365D01*
X0042920Y0074345D01*
X0042833Y0074328D01*
X0042744Y0074315D01*
X0042656Y0074306D01*
X0042567Y0074301D01*
X0042478Y0074300D01*
X0042389Y0074303D01*
X0042300Y0074310D01*
X0042211Y0074321D01*
X0042123Y0074336D01*
X0042036Y0074354D01*
X0041950Y0074377D01*
X0041865Y0074403D01*
X0041781Y0074434D01*
X0041699Y0074468D01*
X0041618Y0074505D01*
X0041539Y0074546D01*
X0041462Y0074591D01*
X0041387Y0074639D01*
X0041314Y0074690D01*
X0041243Y0074744D01*
X0041175Y0074802D01*
X0041110Y0074862D01*
X0041047Y0074926D01*
X0040987Y0074992D01*
X0040930Y0075061D01*
X0040877Y0075132D01*
X0040826Y0075205D01*
X0040779Y0075281D01*
X0040736Y0075358D01*
X0040695Y0075438D01*
X0040659Y0075519D01*
X0040626Y0075602D01*
X0040597Y0075686D01*
X0040571Y0075772D01*
X0040549Y0075858D01*
X0040532Y0075945D01*
X0040518Y0076033D01*
X0040508Y0076122D01*
X0040502Y0076211D01*
X0040500Y0076300D01*
X0047800Y0086300D02*
X0047800Y0046300D01*
X0040500Y0056300D02*
X0040502Y0056389D01*
X0040508Y0056478D01*
X0040518Y0056567D01*
X0040532Y0056655D01*
X0040549Y0056742D01*
X0040571Y0056828D01*
X0040597Y0056914D01*
X0040626Y0056998D01*
X0040659Y0057081D01*
X0040695Y0057162D01*
X0040736Y0057242D01*
X0040779Y0057319D01*
X0040826Y0057395D01*
X0040877Y0057468D01*
X0040930Y0057539D01*
X0040987Y0057608D01*
X0041047Y0057674D01*
X0041110Y0057738D01*
X0041175Y0057798D01*
X0041243Y0057856D01*
X0041314Y0057910D01*
X0041387Y0057961D01*
X0041462Y0058009D01*
X0041539Y0058054D01*
X0041618Y0058095D01*
X0041699Y0058132D01*
X0041781Y0058166D01*
X0041865Y0058197D01*
X0041950Y0058223D01*
X0042036Y0058246D01*
X0042123Y0058264D01*
X0042211Y0058279D01*
X0042300Y0058290D01*
X0042389Y0058297D01*
X0042478Y0058300D01*
X0042567Y0058299D01*
X0042656Y0058294D01*
X0042744Y0058285D01*
X0042833Y0058272D01*
X0042920Y0058255D01*
X0043007Y0058235D01*
X0043093Y0058210D01*
X0043177Y0058182D01*
X0043260Y0058150D01*
X0043342Y0058114D01*
X0043422Y0058075D01*
X0043500Y0058032D01*
X0043576Y0057986D01*
X0043650Y0057936D01*
X0043722Y0057883D01*
X0043791Y0057827D01*
X0043858Y0057768D01*
X0043922Y0057706D01*
X0043983Y0057642D01*
X0044042Y0057574D01*
X0044097Y0057504D01*
X0044149Y0057432D01*
X0044198Y0057357D01*
X0044243Y0057281D01*
X0044285Y0057202D01*
X0044323Y0057122D01*
X0044358Y0057040D01*
X0044389Y0056956D01*
X0044417Y0056871D01*
X0044440Y0056785D01*
X0044460Y0056698D01*
X0044476Y0056611D01*
X0044488Y0056522D01*
X0044496Y0056434D01*
X0044500Y0056345D01*
X0044500Y0056255D01*
X0044496Y0056166D01*
X0044488Y0056078D01*
X0044476Y0055989D01*
X0044460Y0055902D01*
X0044440Y0055815D01*
X0044417Y0055729D01*
X0044389Y0055644D01*
X0044358Y0055560D01*
X0044323Y0055478D01*
X0044285Y0055398D01*
X0044243Y0055319D01*
X0044198Y0055243D01*
X0044149Y0055168D01*
X0044097Y0055096D01*
X0044042Y0055026D01*
X0043983Y0054958D01*
X0043922Y0054894D01*
X0043858Y0054832D01*
X0043791Y0054773D01*
X0043722Y0054717D01*
X0043650Y0054664D01*
X0043576Y0054614D01*
X0043500Y0054568D01*
X0043422Y0054525D01*
X0043342Y0054486D01*
X0043260Y0054450D01*
X0043177Y0054418D01*
X0043093Y0054390D01*
X0043007Y0054365D01*
X0042920Y0054345D01*
X0042833Y0054328D01*
X0042744Y0054315D01*
X0042656Y0054306D01*
X0042567Y0054301D01*
X0042478Y0054300D01*
X0042389Y0054303D01*
X0042300Y0054310D01*
X0042211Y0054321D01*
X0042123Y0054336D01*
X0042036Y0054354D01*
X0041950Y0054377D01*
X0041865Y0054403D01*
X0041781Y0054434D01*
X0041699Y0054468D01*
X0041618Y0054505D01*
X0041539Y0054546D01*
X0041462Y0054591D01*
X0041387Y0054639D01*
X0041314Y0054690D01*
X0041243Y0054744D01*
X0041175Y0054802D01*
X0041110Y0054862D01*
X0041047Y0054926D01*
X0040987Y0054992D01*
X0040930Y0055061D01*
X0040877Y0055132D01*
X0040826Y0055205D01*
X0040779Y0055281D01*
X0040736Y0055358D01*
X0040695Y0055438D01*
X0040659Y0055519D01*
X0040626Y0055602D01*
X0040597Y0055686D01*
X0040571Y0055772D01*
X0040549Y0055858D01*
X0040532Y0055945D01*
X0040518Y0056033D01*
X0040508Y0056122D01*
X0040502Y0056211D01*
X0040500Y0056300D01*
X0086300Y0103800D02*
X0088800Y0101300D01*
X0093800Y0101300D01*
X0096300Y0103800D01*
X0096300Y0108800D01*
X0093800Y0111300D01*
X0088800Y0111300D01*
X0086300Y0108800D01*
X0086300Y0103800D01*
X0088800Y0111300D02*
X0086300Y0113800D01*
X0086300Y0118800D01*
X0088800Y0121300D01*
X0086300Y0123800D01*
X0086300Y0128800D01*
X0088800Y0131300D01*
X0093800Y0131300D01*
X0096300Y0128800D01*
X0096300Y0123800D01*
X0093800Y0121300D01*
X0096300Y0118800D01*
X0096300Y0113800D01*
X0093800Y0111300D01*
X0093800Y0121300D02*
X0088800Y0121300D01*
X0088800Y0141300D02*
X0086300Y0143800D01*
X0086300Y0148800D01*
X0088800Y0151300D01*
X0086300Y0153800D01*
X0086300Y0158800D01*
X0088800Y0161300D01*
X0086300Y0163800D01*
X0086300Y0168800D01*
X0088800Y0171300D01*
X0093800Y0171300D01*
X0096300Y0168800D01*
X0096300Y0163800D01*
X0093800Y0161300D01*
X0096300Y0158800D01*
X0096300Y0153800D01*
X0093800Y0151300D01*
X0096300Y0148800D01*
X0096300Y0143800D01*
X0093800Y0141300D01*
X0088800Y0141300D01*
X0088800Y0151300D02*
X0093800Y0151300D01*
X0093800Y0161300D02*
X0088800Y0161300D01*
X0058800Y0131300D02*
X0053800Y0131300D01*
X0051300Y0128800D01*
X0051300Y0123800D01*
X0053800Y0121300D01*
X0058800Y0121300D01*
X0061300Y0123800D01*
X0061300Y0128800D01*
X0058800Y0131300D01*
X0051300Y0128800D02*
X0048800Y0131300D01*
X0043800Y0131300D01*
X0041300Y0128800D01*
X0041300Y0123800D01*
X0043800Y0121300D01*
X0048800Y0121300D01*
X0051300Y0123800D01*
X0041300Y0123800D02*
X0038800Y0121300D01*
X0033800Y0121300D01*
X0031300Y0123800D01*
X0028800Y0121300D01*
X0023800Y0121300D01*
X0021300Y0123800D01*
X0021300Y0128800D01*
X0023800Y0131300D01*
X0028800Y0131300D01*
X0031300Y0128800D01*
X0033800Y0131300D01*
X0038800Y0131300D01*
X0041300Y0128800D01*
X0041300Y0123800D01*
X0031300Y0123800D02*
X0031300Y0128800D01*
X0018800Y0151300D02*
X0013800Y0151300D01*
X0011300Y0153800D01*
X0011300Y0158800D01*
X0013800Y0161300D01*
X0011300Y0163800D01*
X0011300Y0168800D01*
X0013800Y0171300D01*
X0018800Y0171300D01*
X0021300Y0168800D01*
X0021300Y0163800D01*
X0018800Y0161300D01*
X0021300Y0158800D01*
X0021300Y0153800D01*
X0018800Y0151300D01*
X0018800Y0161300D02*
X0013800Y0161300D01*
X0111300Y0088800D02*
X0111300Y0083800D01*
X0113800Y0081300D01*
X0111300Y0078800D01*
X0111300Y0073800D01*
X0113800Y0071300D01*
X0118800Y0071300D01*
X0121300Y0073800D01*
X0121300Y0078800D01*
X0118800Y0081300D01*
X0113800Y0081300D01*
X0118800Y0081300D02*
X0121300Y0083800D01*
X0121300Y0088800D01*
X0118800Y0091300D01*
X0113800Y0091300D01*
X0111300Y0088800D01*
X0113800Y0071300D02*
X0111300Y0068800D01*
X0111300Y0063800D01*
X0113800Y0061300D01*
X0111300Y0058800D01*
X0111300Y0053800D01*
X0113800Y0051300D01*
X0111300Y0048800D01*
X0111300Y0043800D01*
X0113800Y0041300D01*
X0118800Y0041300D01*
X0121300Y0043800D01*
X0121300Y0048800D01*
X0118800Y0051300D01*
X0113800Y0051300D01*
X0118800Y0051300D02*
X0121300Y0053800D01*
X0121300Y0058800D01*
X0118800Y0061300D01*
X0113800Y0061300D01*
X0118800Y0061300D02*
X0121300Y0063800D01*
X0121300Y0068800D01*
X0118800Y0071300D01*
X0146300Y0043800D02*
X0186300Y0043800D01*
X0186300Y0042800D01*
X0186300Y0016800D01*
X0179800Y0016800D01*
X0186300Y0016800D02*
X0186300Y0007300D01*
X0146300Y0007300D01*
X0146300Y0016800D01*
X0152800Y0016800D01*
X0146300Y0016800D02*
X0146300Y0042800D01*
X0146300Y0043800D01*
X0146300Y0042800D02*
X0186300Y0042800D01*
X0174300Y0037500D02*
X0174302Y0037589D01*
X0174308Y0037678D01*
X0174318Y0037767D01*
X0174332Y0037855D01*
X0174349Y0037942D01*
X0174371Y0038028D01*
X0174397Y0038114D01*
X0174426Y0038198D01*
X0174459Y0038281D01*
X0174495Y0038362D01*
X0174536Y0038442D01*
X0174579Y0038519D01*
X0174626Y0038595D01*
X0174677Y0038668D01*
X0174730Y0038739D01*
X0174787Y0038808D01*
X0174847Y0038874D01*
X0174910Y0038938D01*
X0174975Y0038998D01*
X0175043Y0039056D01*
X0175114Y0039110D01*
X0175187Y0039161D01*
X0175262Y0039209D01*
X0175339Y0039254D01*
X0175418Y0039295D01*
X0175499Y0039332D01*
X0175581Y0039366D01*
X0175665Y0039397D01*
X0175750Y0039423D01*
X0175836Y0039446D01*
X0175923Y0039464D01*
X0176011Y0039479D01*
X0176100Y0039490D01*
X0176189Y0039497D01*
X0176278Y0039500D01*
X0176367Y0039499D01*
X0176456Y0039494D01*
X0176544Y0039485D01*
X0176633Y0039472D01*
X0176720Y0039455D01*
X0176807Y0039435D01*
X0176893Y0039410D01*
X0176977Y0039382D01*
X0177060Y0039350D01*
X0177142Y0039314D01*
X0177222Y0039275D01*
X0177300Y0039232D01*
X0177376Y0039186D01*
X0177450Y0039136D01*
X0177522Y0039083D01*
X0177591Y0039027D01*
X0177658Y0038968D01*
X0177722Y0038906D01*
X0177783Y0038842D01*
X0177842Y0038774D01*
X0177897Y0038704D01*
X0177949Y0038632D01*
X0177998Y0038557D01*
X0178043Y0038481D01*
X0178085Y0038402D01*
X0178123Y0038322D01*
X0178158Y0038240D01*
X0178189Y0038156D01*
X0178217Y0038071D01*
X0178240Y0037985D01*
X0178260Y0037898D01*
X0178276Y0037811D01*
X0178288Y0037722D01*
X0178296Y0037634D01*
X0178300Y0037545D01*
X0178300Y0037455D01*
X0178296Y0037366D01*
X0178288Y0037278D01*
X0178276Y0037189D01*
X0178260Y0037102D01*
X0178240Y0037015D01*
X0178217Y0036929D01*
X0178189Y0036844D01*
X0178158Y0036760D01*
X0178123Y0036678D01*
X0178085Y0036598D01*
X0178043Y0036519D01*
X0177998Y0036443D01*
X0177949Y0036368D01*
X0177897Y0036296D01*
X0177842Y0036226D01*
X0177783Y0036158D01*
X0177722Y0036094D01*
X0177658Y0036032D01*
X0177591Y0035973D01*
X0177522Y0035917D01*
X0177450Y0035864D01*
X0177376Y0035814D01*
X0177300Y0035768D01*
X0177222Y0035725D01*
X0177142Y0035686D01*
X0177060Y0035650D01*
X0176977Y0035618D01*
X0176893Y0035590D01*
X0176807Y0035565D01*
X0176720Y0035545D01*
X0176633Y0035528D01*
X0176544Y0035515D01*
X0176456Y0035506D01*
X0176367Y0035501D01*
X0176278Y0035500D01*
X0176189Y0035503D01*
X0176100Y0035510D01*
X0176011Y0035521D01*
X0175923Y0035536D01*
X0175836Y0035554D01*
X0175750Y0035577D01*
X0175665Y0035603D01*
X0175581Y0035634D01*
X0175499Y0035668D01*
X0175418Y0035705D01*
X0175339Y0035746D01*
X0175262Y0035791D01*
X0175187Y0035839D01*
X0175114Y0035890D01*
X0175043Y0035944D01*
X0174975Y0036002D01*
X0174910Y0036062D01*
X0174847Y0036126D01*
X0174787Y0036192D01*
X0174730Y0036261D01*
X0174677Y0036332D01*
X0174626Y0036405D01*
X0174579Y0036481D01*
X0174536Y0036558D01*
X0174495Y0036638D01*
X0174459Y0036719D01*
X0174426Y0036802D01*
X0174397Y0036886D01*
X0174371Y0036972D01*
X0174349Y0037058D01*
X0174332Y0037145D01*
X0174318Y0037233D01*
X0174308Y0037322D01*
X0174302Y0037411D01*
X0174300Y0037500D01*
X0154300Y0037500D02*
X0154302Y0037589D01*
X0154308Y0037678D01*
X0154318Y0037767D01*
X0154332Y0037855D01*
X0154349Y0037942D01*
X0154371Y0038028D01*
X0154397Y0038114D01*
X0154426Y0038198D01*
X0154459Y0038281D01*
X0154495Y0038362D01*
X0154536Y0038442D01*
X0154579Y0038519D01*
X0154626Y0038595D01*
X0154677Y0038668D01*
X0154730Y0038739D01*
X0154787Y0038808D01*
X0154847Y0038874D01*
X0154910Y0038938D01*
X0154975Y0038998D01*
X0155043Y0039056D01*
X0155114Y0039110D01*
X0155187Y0039161D01*
X0155262Y0039209D01*
X0155339Y0039254D01*
X0155418Y0039295D01*
X0155499Y0039332D01*
X0155581Y0039366D01*
X0155665Y0039397D01*
X0155750Y0039423D01*
X0155836Y0039446D01*
X0155923Y0039464D01*
X0156011Y0039479D01*
X0156100Y0039490D01*
X0156189Y0039497D01*
X0156278Y0039500D01*
X0156367Y0039499D01*
X0156456Y0039494D01*
X0156544Y0039485D01*
X0156633Y0039472D01*
X0156720Y0039455D01*
X0156807Y0039435D01*
X0156893Y0039410D01*
X0156977Y0039382D01*
X0157060Y0039350D01*
X0157142Y0039314D01*
X0157222Y0039275D01*
X0157300Y0039232D01*
X0157376Y0039186D01*
X0157450Y0039136D01*
X0157522Y0039083D01*
X0157591Y0039027D01*
X0157658Y0038968D01*
X0157722Y0038906D01*
X0157783Y0038842D01*
X0157842Y0038774D01*
X0157897Y0038704D01*
X0157949Y0038632D01*
X0157998Y0038557D01*
X0158043Y0038481D01*
X0158085Y0038402D01*
X0158123Y0038322D01*
X0158158Y0038240D01*
X0158189Y0038156D01*
X0158217Y0038071D01*
X0158240Y0037985D01*
X0158260Y0037898D01*
X0158276Y0037811D01*
X0158288Y0037722D01*
X0158296Y0037634D01*
X0158300Y0037545D01*
X0158300Y0037455D01*
X0158296Y0037366D01*
X0158288Y0037278D01*
X0158276Y0037189D01*
X0158260Y0037102D01*
X0158240Y0037015D01*
X0158217Y0036929D01*
X0158189Y0036844D01*
X0158158Y0036760D01*
X0158123Y0036678D01*
X0158085Y0036598D01*
X0158043Y0036519D01*
X0157998Y0036443D01*
X0157949Y0036368D01*
X0157897Y0036296D01*
X0157842Y0036226D01*
X0157783Y0036158D01*
X0157722Y0036094D01*
X0157658Y0036032D01*
X0157591Y0035973D01*
X0157522Y0035917D01*
X0157450Y0035864D01*
X0157376Y0035814D01*
X0157300Y0035768D01*
X0157222Y0035725D01*
X0157142Y0035686D01*
X0157060Y0035650D01*
X0156977Y0035618D01*
X0156893Y0035590D01*
X0156807Y0035565D01*
X0156720Y0035545D01*
X0156633Y0035528D01*
X0156544Y0035515D01*
X0156456Y0035506D01*
X0156367Y0035501D01*
X0156278Y0035500D01*
X0156189Y0035503D01*
X0156100Y0035510D01*
X0156011Y0035521D01*
X0155923Y0035536D01*
X0155836Y0035554D01*
X0155750Y0035577D01*
X0155665Y0035603D01*
X0155581Y0035634D01*
X0155499Y0035668D01*
X0155418Y0035705D01*
X0155339Y0035746D01*
X0155262Y0035791D01*
X0155187Y0035839D01*
X0155114Y0035890D01*
X0155043Y0035944D01*
X0154975Y0036002D01*
X0154910Y0036062D01*
X0154847Y0036126D01*
X0154787Y0036192D01*
X0154730Y0036261D01*
X0154677Y0036332D01*
X0154626Y0036405D01*
X0154579Y0036481D01*
X0154536Y0036558D01*
X0154495Y0036638D01*
X0154459Y0036719D01*
X0154426Y0036802D01*
X0154397Y0036886D01*
X0154371Y0036972D01*
X0154349Y0037058D01*
X0154332Y0037145D01*
X0154318Y0037233D01*
X0154308Y0037322D01*
X0154302Y0037411D01*
X0154300Y0037500D01*
X0159800Y0016800D02*
X0172800Y0016800D01*
X0211300Y0048800D02*
X0213800Y0046300D01*
X0218800Y0046300D01*
X0221300Y0048800D01*
X0221300Y0053800D01*
X0218800Y0056300D01*
X0221300Y0058800D01*
X0221300Y0063800D01*
X0218800Y0066300D01*
X0213800Y0066300D01*
X0211300Y0063800D01*
X0211300Y0058800D01*
X0213800Y0056300D01*
X0218800Y0056300D01*
X0213800Y0056300D02*
X0211300Y0053800D01*
X0211300Y0048800D01*
X0213800Y0066300D02*
X0211300Y0068800D01*
X0211300Y0073800D01*
X0213800Y0076300D01*
X0211300Y0078800D01*
X0211300Y0083800D01*
X0213800Y0086300D01*
X0211300Y0088800D01*
X0211300Y0093800D01*
X0213800Y0096300D01*
X0211300Y0098800D01*
X0211300Y0103800D01*
X0213800Y0106300D01*
X0218800Y0106300D01*
X0221300Y0103800D01*
X0221300Y0098800D01*
X0218800Y0096300D01*
X0221300Y0093800D01*
X0221300Y0088800D01*
X0218800Y0086300D01*
X0221300Y0083800D01*
X0221300Y0078800D01*
X0218800Y0076300D01*
X0221300Y0073800D01*
X0221300Y0068800D01*
X0218800Y0066300D01*
X0218800Y0076300D02*
X0213800Y0076300D01*
X0213800Y0086300D02*
X0218800Y0086300D01*
X0218800Y0096300D02*
X0213800Y0096300D01*
X0176300Y0103800D02*
X0173800Y0101300D01*
X0168800Y0101300D01*
X0166300Y0103800D01*
X0166300Y0108800D01*
X0168800Y0111300D01*
X0166300Y0113800D01*
X0166300Y0118800D01*
X0168800Y0121300D01*
X0166300Y0123800D01*
X0166300Y0128800D01*
X0168800Y0131300D01*
X0173800Y0131300D01*
X0176300Y0128800D01*
X0176300Y0123800D01*
X0173800Y0121300D01*
X0176300Y0118800D01*
X0176300Y0113800D01*
X0173800Y0111300D01*
X0176300Y0108800D01*
X0176300Y0103800D01*
X0173800Y0111300D02*
X0168800Y0111300D01*
X0168800Y0121300D02*
X0173800Y0121300D01*
X0173800Y0141300D02*
X0168800Y0141300D01*
X0166300Y0143800D01*
X0166300Y0148800D01*
X0168800Y0151300D01*
X0166300Y0153800D01*
X0166300Y0158800D01*
X0168800Y0161300D01*
X0166300Y0163800D01*
X0166300Y0168800D01*
X0168800Y0171300D01*
X0173800Y0171300D01*
X0176300Y0168800D01*
X0176300Y0163800D01*
X0173800Y0161300D01*
X0176300Y0158800D01*
X0176300Y0153800D01*
X0173800Y0151300D01*
X0176300Y0148800D01*
X0176300Y0143800D01*
X0173800Y0141300D01*
X0173800Y0151300D02*
X0168800Y0151300D01*
X0168800Y0161300D02*
X0173800Y0161300D01*
X0118800Y0041300D02*
X0121300Y0038800D01*
X0121300Y0033800D01*
X0118800Y0031300D01*
X0121300Y0028800D01*
X0121300Y0023800D01*
X0118800Y0021300D01*
X0121300Y0018800D01*
X0121300Y0013800D01*
X0118800Y0011300D01*
X0113800Y0011300D01*
X0111300Y0013800D01*
X0111300Y0018800D01*
X0113800Y0021300D01*
X0111300Y0023800D01*
X0111300Y0028800D01*
X0113800Y0031300D01*
X0111300Y0033800D01*
X0111300Y0038800D01*
X0113800Y0041300D01*
X0113800Y0031300D02*
X0118800Y0031300D01*
X0118800Y0021300D02*
X0113800Y0021300D01*
D11*
X0151550Y0014054D02*
X0154553Y0009550D01*
X0156154Y0009550D02*
X0159156Y0012553D01*
X0159156Y0013303D01*
X0158406Y0014054D01*
X0156905Y0014054D01*
X0156154Y0013303D01*
X0154553Y0014054D02*
X0151550Y0009550D01*
X0156154Y0009550D02*
X0159156Y0009550D01*
X0204346Y0047751D02*
X0204346Y0049253D01*
X0204346Y0048502D02*
X0208099Y0048502D01*
X0208850Y0047751D01*
X0208850Y0047001D01*
X0208099Y0046250D01*
X0207349Y0050854D02*
X0207349Y0053106D01*
X0206598Y0053856D01*
X0205097Y0053856D01*
X0204346Y0053106D01*
X0204346Y0050854D01*
X0208850Y0050854D01*
X0208099Y0055458D02*
X0208850Y0056208D01*
X0208850Y0057710D01*
X0208099Y0058460D01*
X0206598Y0058460D01*
X0205847Y0057710D01*
X0205847Y0056959D01*
X0206598Y0055458D01*
X0204346Y0055458D01*
X0204346Y0058460D01*
X0182499Y0113434D02*
X0183250Y0114185D01*
X0183250Y0114936D01*
X0182499Y0115686D01*
X0178746Y0115686D01*
X0178746Y0114936D02*
X0178746Y0116437D01*
X0178746Y0118038D02*
X0178746Y0120290D01*
X0179497Y0121041D01*
X0180998Y0121041D01*
X0181749Y0120290D01*
X0181749Y0118038D01*
X0183250Y0118038D02*
X0178746Y0118038D01*
X0180247Y0122642D02*
X0178746Y0124143D01*
X0183250Y0124143D01*
X0183250Y0122642D02*
X0183250Y0125645D01*
X0182499Y0127246D02*
X0179497Y0127246D01*
X0178746Y0127997D01*
X0178746Y0129498D01*
X0179497Y0130249D01*
X0182499Y0127246D01*
X0183250Y0127997D01*
X0183250Y0129498D01*
X0182499Y0130249D01*
X0179497Y0130249D01*
X0182499Y0158038D02*
X0183250Y0158789D01*
X0183250Y0159539D01*
X0182499Y0160290D01*
X0178746Y0160290D01*
X0178746Y0159539D02*
X0178746Y0161041D01*
X0178746Y0162642D02*
X0178746Y0164894D01*
X0179497Y0165645D01*
X0180998Y0165645D01*
X0181749Y0164894D01*
X0181749Y0162642D01*
X0183250Y0162642D02*
X0178746Y0162642D01*
X0179497Y0167246D02*
X0180247Y0167246D01*
X0180998Y0167997D01*
X0180998Y0170249D01*
X0179497Y0170249D02*
X0178746Y0169498D01*
X0178746Y0167997D01*
X0179497Y0167246D01*
X0182499Y0167246D02*
X0183250Y0167997D01*
X0183250Y0169498D01*
X0182499Y0170249D01*
X0179497Y0170249D01*
X0103250Y0170249D02*
X0103250Y0167246D01*
X0100247Y0170249D01*
X0099497Y0170249D01*
X0098746Y0169498D01*
X0098746Y0167997D01*
X0099497Y0167246D01*
X0099497Y0165645D02*
X0100998Y0165645D01*
X0101749Y0164894D01*
X0101749Y0162642D01*
X0103250Y0162642D02*
X0098746Y0162642D01*
X0098746Y0164894D01*
X0099497Y0165645D01*
X0098746Y0161041D02*
X0098746Y0159539D01*
X0098746Y0160290D02*
X0102499Y0160290D01*
X0103250Y0159539D01*
X0103250Y0158789D01*
X0102499Y0158038D01*
X0102499Y0130249D02*
X0101749Y0130249D01*
X0100998Y0129498D01*
X0100998Y0128747D01*
X0100998Y0129498D02*
X0100247Y0130249D01*
X0099497Y0130249D01*
X0098746Y0129498D01*
X0098746Y0127997D01*
X0099497Y0127246D01*
X0099497Y0125645D02*
X0100998Y0125645D01*
X0101749Y0124894D01*
X0101749Y0122642D01*
X0103250Y0122642D02*
X0098746Y0122642D01*
X0098746Y0124894D01*
X0099497Y0125645D01*
X0102499Y0127246D02*
X0103250Y0127997D01*
X0103250Y0129498D01*
X0102499Y0130249D01*
X0098746Y0121041D02*
X0098746Y0119539D01*
X0098746Y0120290D02*
X0102499Y0120290D01*
X0103250Y0119539D01*
X0103250Y0118789D01*
X0102499Y0118038D01*
X0123746Y0090249D02*
X0124497Y0090249D01*
X0127499Y0087246D01*
X0128250Y0087246D01*
X0125998Y0085645D02*
X0126749Y0084894D01*
X0126749Y0082642D01*
X0128250Y0082642D02*
X0123746Y0082642D01*
X0123746Y0084894D01*
X0124497Y0085645D01*
X0125998Y0085645D01*
X0123746Y0087246D02*
X0123746Y0090249D01*
X0123746Y0081041D02*
X0123746Y0079539D01*
X0123746Y0080290D02*
X0127499Y0080290D01*
X0128250Y0079539D01*
X0128250Y0078789D01*
X0127499Y0078038D01*
X0053460Y0134501D02*
X0053460Y0135251D01*
X0052710Y0136002D01*
X0050458Y0136002D01*
X0050458Y0134501D01*
X0051208Y0133750D01*
X0052710Y0133750D01*
X0053460Y0134501D01*
X0051959Y0137503D02*
X0050458Y0136002D01*
X0048856Y0136002D02*
X0048106Y0135251D01*
X0045854Y0135251D01*
X0045854Y0133750D02*
X0045854Y0138254D01*
X0048106Y0138254D01*
X0048856Y0137503D01*
X0048856Y0136002D01*
X0051959Y0137503D02*
X0053460Y0138254D01*
X0044253Y0138254D02*
X0042751Y0138254D01*
X0043502Y0138254D02*
X0043502Y0134501D01*
X0042751Y0133750D01*
X0042001Y0133750D01*
X0041250Y0134501D01*
X0033460Y0136002D02*
X0030458Y0136002D01*
X0032710Y0138254D01*
X0032710Y0133750D01*
X0028856Y0136002D02*
X0028856Y0137503D01*
X0028106Y0138254D01*
X0025854Y0138254D01*
X0025854Y0133750D01*
X0025854Y0135251D02*
X0028106Y0135251D01*
X0028856Y0136002D01*
X0024253Y0138254D02*
X0022751Y0138254D01*
X0023502Y0138254D02*
X0023502Y0134501D01*
X0022751Y0133750D01*
X0022001Y0133750D01*
X0021250Y0134501D01*
X0008099Y0151250D02*
X0008850Y0152001D01*
X0008850Y0152751D01*
X0008099Y0153502D01*
X0004346Y0153502D01*
X0004346Y0152751D02*
X0004346Y0154253D01*
X0004346Y0155854D02*
X0004346Y0158106D01*
X0005097Y0158856D01*
X0006598Y0158856D01*
X0007349Y0158106D01*
X0007349Y0155854D01*
X0008850Y0155854D02*
X0004346Y0155854D01*
X0005847Y0160458D02*
X0004346Y0161959D01*
X0008850Y0161959D01*
X0008850Y0160458D02*
X0008850Y0163460D01*
X0019050Y0079949D02*
X0019050Y0076946D01*
X0019050Y0078447D02*
X0014546Y0078447D01*
X0016047Y0076946D01*
X0014546Y0075345D02*
X0019050Y0072342D01*
X0019050Y0075345D02*
X0014546Y0072342D01*
M02*
