%
M48
M72
T01C0.04000
T02C0.04700
%
T01
X116300Y16300
X116300Y26300
X116300Y36300
X116300Y46300
X116300Y56300
X116300Y66300
X116300Y76300
X116300Y86300
X91300Y106300
X91300Y116300
X91300Y126300
X91300Y146300
X91300Y156300
X91300Y166300
X56300Y126300
X46300Y126300
X36300Y126300
X26300Y126300
X16300Y156300
X16300Y166300
X171300Y166300
X171300Y156300
X171300Y146300
X171300Y126300
X171300Y116300
X171300Y106300
X216300Y101300
X216300Y91300
X216300Y81300
X216300Y71300
X216300Y61300
X216300Y51300
T02
X28800Y56300
X28800Y76300
X156300Y23800
X176300Y23800
M30
